<?xml version="1.0" encoding="utf-8" ?>
<svg baseProfile="full" height="200mm" version="1.1" viewBox="0,0,200,200" width="200mm" xmlns="http://www.w3.org/2000/svg" xmlns:ev="http://www.w3.org/2001/xml-events" xmlns:xlink="http://www.w3.org/1999/xlink"><defs /><rect fill="#1a1a1a" height="200" width="200" x="0" y="0" /><text alignment-baseline="middle" fill="#e1ed5e" style="dominant-baseline: central; font-size:9.0px; font-family:Arial;" text-anchor="middle" x="100.0" y="100.0">2024</text><line stroke="#e1ed5e" stroke-width="0.3" x1="100.0" x2="100.0" y1="15.0" y2="10.0" /><path d="M 100.0 14.0 a86.0,86.0 0 0,1 42.35913384403234,11.155469271406648" fill="none" id="id37" stroke="none" /><text fill="#e1ed5e" style="font-size:6.75px; font-family:Arial;" text-anchor="middle"><textPath startOffset="22.145653131862478" xlink:href="#id37">January</textPath></text><path d="M 100.0 79.0 l 0.0 -40.32017640200733 a61.32017640200733,61.32017640200733 0 0,0 1.0526423687336832,0.009035668720990557 l -0.6921494438848284 40.31423513148077" fill="#30ff37" stroke="none" /><path d="M 100.36049292484886 79.00309439819443 l 0.133772242325533 -7.791562470827223 a28.792710744639507,28.792710744639507 0 0,0 0.4941195049609709,0.012726765685244633 l -0.2675050613572452 7.788117987791933" fill="#ff4e07" stroke="none" /><path d="M 100.72087961077811 79.0123766808444 l 0.26625220805294153 -7.751642530819994 a28.756213777605055,28.756213777605055 0 0,0 0.49320225834993586,0.021180227092251633 l -0.3992802270037137 7.745929735301911" fill="#ff4e07" stroke="none" /><path d="M 101.08105385017728 79.02784411241856 l 0.7539463450415783 -14.626357675421373 a35.64577665883784,35.64577665883784 0 0,0 0.6108254311098877,0.03674574112221938 l -1.0049161282839283 14.611259956474463" fill="#ffac10" stroke="none" /><path d="M 101.44090949804482 79.04949213459386 l 0.48681184484406115 -7.0781373835188415 a28.09485832080158,28.09485832080158 0 0,0 0.48086491275681464,0.037221985449633205 l -0.6082457523761093 7.068737631074155" fill="#ff4406" stroke="none" /><path d="M 101.80034050326958 79.07731436759882 l 0.5108456019956161 -5.936800242975237 a26.958738151158272,26.958738151158272 0 0,0 0.46073823300189587,0.04363238969301425 l -0.6126833983825248 5.92715609777704" fill="#ff3404" stroke="none" /><path d="M 102.15924093988457 79.11130261209362 l 0.25144349043970443 -2.4324876788575067 a23.44544886200429,23.44544886200429 0 0,0 0.3999839332433617,0.04481903400656514 l -0.2931633252838628 2.4278128843439704" fill="#ff0000" stroke="none" /><path d="M 102.51750503828377 79.15144685158666 l 0.9711160484140346 -8.042233974013993 a29.1006539039927,29.1006539039927 0 0,0 0.4954347222932241,0.06414394374954795 l -1.1090285925980505 8.024378434064047" fill="#ff5207" stroke="none" /><path d="M 102.87502721639298 79.19773525538626 l 2.337331524999631 -16.911766574500525 a38.07252082523698,38.07252082523698 0 0,0 0.6466434449805109,0.09503431802213666 l -2.627300075587824 16.869151183179508" fill="#ffcc13" stroke="none" /><path d="M 103.23170211078529 79.25015418208739 l 6.3154240123850505 -40.54955253901462 a62.038406299106164,62.038406299106164 0 0,0 1.0508788950155317,0.17292172226848654 l -7.010580410453652 40.43516481825046" fill="#31ff40" stroke="none" /><path d="M 103.58742460773223 79.30868818359171 l 1.4525189817452306 -8.377743494807893 a29.502728824155582,29.502728824155582 0 0,0 0.4982663418757214,0.09080072561489999 l -1.5961200571720058 8.351574595261628" fill="#ff5808" stroke="none" /><path d="M 103.94208987418118 79.37332000966035 l 8.774135695322363 -45.90998555476186 a67.74090532754337,67.74090532754337 0 0,0 1.140316576504824,0.22809525172927292 l -9.560948757358144 45.75260090636973" fill="#38ff84" stroke="none" /><path d="M 104.29559338865022 79.4440306129975 l 6.328716431319138 -30.28519914499972 a51.93939137928121,51.93939137928121 0 0,0 0.8711907477005234,0.1898719686480722 l -6.847669595638795 30.17209571821793" fill="#8bff24" stroke="none" /><path d="M 104.64783097203109 79.52079915486377 l 13.943492916093248 -61.4376025354087 a84.0,84.0 0 0,0 1.40347138504046,0.3312154254150901 l -14.996096454873593 61.18919096634738" fill="#4dd2ff" stroke="none" /><path d="M 104.9986988182912 79.60360301121754 l 3.7390606455670605 -15.256643391487543 a36.70814254093236,36.70814254093236 0 0,0 0.6107443190156898,0.15524881759670742 l -4.000410257808144 15.190209342055567" fill="#ffbb11" stroke="none" /><path d="M 105.3480935250658 79.69241777938227 l 4.28424787608082 -16.26798701055768 a37.82266867174695,37.82266867174695 0 0,0 0.6264489347770623,0.17074144286816428 l -4.562878211792575 16.192045073545373" fill="#ffc912" stroke="none" /><path d="M 105.69591212413111 79.78721728523813 l 2.1525430759945317 -7.638615998816823 a28.93611341094571,28.93611341094571 0 0,0 0.47694980656139224,0.13883313754906257 l -2.2833528949375284 7.600539166965245" fill="#ff5007" stroke="none" /><path d="M 106.04205211174951 79.88797359093562 l 2.234655484240123 -7.438441324728052 a28.766858726323434,28.766858726323434 0 0,0 0.4717208221556172,0.14614031652420598 l -2.3620169392673707 7.398984420397199" fill="#ff4e07" stroke="none" /><path d="M 106.38641147887787 79.99465700312896 l 8.126283558823786 -25.455467506560954 a47.72110234357839,47.72110234357839 0 0,0 0.7782567850981252,0.2558284634057088 l -8.562063081569654 25.312218121753222" fill="#bbff1f" stroke="none" /><path d="M 106.72888874123014 80.10723608172694 l 5.119208862570789 -15.134031378387 a36.97639524863558,36.97639524863558 0 0,0 0.5995356739401155,0.20854962910532013 l -5.3782503085559235 15.043923316713089" fill="#ffbe11" stroke="none" /><path d="M 107.40779381753099 80.34994680014964 l 6.533587566848265 -17.331117257963857 a39.52175455789669,39.52175455789669 0 0,0 0.6327766722517993,0.2447716104181448 l -6.83013650159359 17.216405759407674" fill="#ffdf14" stroke="none" /><path d="M 107.74402155503746 80.48000691201159 l 2.8494371447488316 -7.182442994876906 a28.72701620397749,28.72701620397749 0 0,0 0.45682185260134445,0.18578547052158426 l -2.9723134585406155 7.1324702677760285" fill="#ff4d07" stroke="none" /><path d="M 108.07796709384702 80.6158196554323 l 3.104924546679471 -7.450688603937725 a29.071760471757088,29.071760471757088 0 0,0 0.4590083845467335,0.19592338503730394 l -3.2323680063966345 7.39629056924102" fill="#ff5207" stroke="none" /><path d="M 108.4095320186766 80.7573450057729 l 3.0762882158882507 -7.039149463926968 a28.682003277968334,28.682003277968334 0 0,0 0.4494696599062009,0.20104206185277385 l -3.1966712786500833 6.985303651164341" fill="#ff4d07" stroke="none" /><path d="M 108.73861861582097 80.90454125486305 l 16.83922342634374 -36.79674218253795 a61.466772552929044,61.466772552929044 0 0,0 0.955694998115454,0.4473135149874053 l -17.4684071383307 36.50225243598001" fill="#30ff39" stroke="none" /><path d="M 109.3889696526874 81.21577127319529 l 17.22897155437431 -34.469484339247614 a59.535474714022605,59.535474714022605 0 0,0 0.9102485844301054,0.4647794129879556 l -17.818147360517997 34.16864697458682" fill="#3bff2e" stroke="none" /><line stroke="#e1ed5e" stroke-width="0.3" x1="143.13028292997686" x2="145.6673583964461" y1="26.7553504044142" y2="22.446841604673864" /><path d="M 143.63769802327073 25.89364864446614 a86.0,86.0 0 0,1 29.32050498858742,28.57503671076993" fill="none" id="id38" stroke="none" /><text fill="#e1ed5e" style="font-size:6.75px; font-family:Arial;" text-anchor="middle"><textPath startOffset="20.669276256404974" xlink:href="#id38">February</textPath></text><line stroke="#e1ed5e" stroke-width="0.3" x1="172.87174338648825" x2="177.1583165268699" y1="56.24261187166439" y2="53.66864786411523" /><path d="M 173.72905801456457 55.72781907015455 a86.0,86.0 0 0,1 12.242430191666344,42.057860355516425" fill="none" id="id39" stroke="none" /><text fill="#e1ed5e" style="font-size:6.75px; font-family:Arial;" text-anchor="middle"><textPath startOffset="22.145653131862474" xlink:href="#id39">March</textPath></text><line stroke="#e1ed5e" stroke-width="0.3" x1="184.99686870605535" x2="189.99668451229388" y1="99.2704041080226" y2="99.22748670261217" /><path d="M 185.99683186730306 99.26182062694052 a86.0,86.0 0 0,1 -10.086455211305974,41.156179273409016" fill="none" id="id40" stroke="none" /><text fill="#e1ed5e" style="font-size:6.75px; font-family:Arial;" text-anchor="middle"><textPath startOffset="21.40746469413373" xlink:href="#id40">April</textPath></text><line stroke="#e1ed5e" stroke-width="0.3" x1="174.33088141563837" x2="178.70328620479359" y1="141.23008692659167" y2="143.65538615756765" /><path d="M 175.20536237346943 141.71514677278685 a86.0,86.0 0 0,1 -30.301960400862466,31.631185727798858" fill="none" id="id41" stroke="none" /><text fill="#e1ed5e" style="font-size:6.75px; font-family:Arial;" text-anchor="middle"><textPath startOffset="22.145653131862474" xlink:href="#id41">May</textPath></text><line stroke="#e1ed5e" stroke-width="0.3" x1="143.1302829299769" x2="145.66735839644613" y1="173.24464959558577" y2="177.55315839532614" /><path d="M 143.63769802327073 174.10635135553383 a86.0,86.0 0 0,1 -40.68552437913181,11.842963189579606" fill="none" id="id42" stroke="none" /><text fill="#e1ed5e" style="font-size:6.75px; font-family:Arial;" text-anchor="middle"><textPath startOffset="21.407464694133747" xlink:href="#id42">June</textPath></text><line stroke="#e1ed5e" stroke-width="0.3" x1="101.45913802915013" x2="101.54496967792366" y1="184.9874750549273" y2="189.98673829345242" /><path d="M 101.47630435890484 185.9873277026323 a86.0,86.0 0 0,1 -42.54439059252881,-10.42667462771756" fill="none" id="id43" stroke="none" /><text fill="#e1ed5e" style="font-size:6.75px; font-family:Arial;" text-anchor="middle"><textPath startOffset="22.145653131862474" xlink:href="#id43">July</textPath></text><line stroke="#e1ed5e" stroke-width="0.3" x1="58.13341422392154" x2="55.67067388415222" y1="173.97424548756322" y2="178.32567169271397" /><path d="M 57.64086615596768 174.84453072859336 a86.0,86.0 0 0,1 -31.369924170532247,-30.572349798747897" fill="none" id="id44" stroke="none" /><text fill="#e1ed5e" style="font-size:6.75px; font-family:Arial;" text-anchor="middle"><textPath startOffset="22.145653131862474" xlink:href="#id44">August</textPath></text><line stroke="#e1ed5e" stroke-width="0.3" x1="26.387840678322732" x2="22.057713659400548" y1="142.50000000000003" y2="145.00000000000006" /><path d="M 25.521815274538298 143.00000000000003 a86.0,86.0 0 0,1 -11.493303480769221,-40.785679425670985" fill="none" id="id45" stroke="none" /><text fill="#e1ed5e" style="font-size:6.75px; font-family:Arial;" text-anchor="middle"><textPath startOffset="21.40746469413373" xlink:href="#id45">September</textPath></text><line stroke="#e1ed5e" stroke-width="0.3" x1="15.003131293944662" x2="10.003315487706104" y1="100.72959589197737" y2="100.7725132973878" /><path d="M 14.003168132696942 100.73817937305945 a86.0,86.0 0 0,1 10.791469493833604,-42.45332614584628" fill="none" id="id46" stroke="none" /><text fill="#e1ed5e" style="font-size:6.75px; font-family:Arial;" text-anchor="middle"><textPath startOffset="22.145653131862435" xlink:href="#id46">October</textPath></text><line stroke="#e1ed5e" stroke-width="0.3" x1="26.387840678322718" x2="22.05771365940052" y1="57.49999999999999" y2="54.99999999999999" /><path d="M 25.521815274538284 56.99999999999999 a86.0,86.0 0 0,1 29.574782752854787,-30.34633250058573" fill="none" id="id47" stroke="none" /><text fill="#e1ed5e" style="font-size:6.75px; font-family:Arial;" text-anchor="middle"><textPath startOffset="21.40746469413373" xlink:href="#id47">November</textPath></text><line stroke="#e1ed5e" stroke-width="0.3" x1="56.869717070023135" x2="54.33264160355391" y1="26.7553504044142" y2="22.446841604673864" /><path d="M 56.362301976729285 25.89364864446614 a86.0,86.0 0 0,1 42.16139366436587,-11.88097634709845" fill="none" id="id48" stroke="none" /><text fill="#e1ed5e" style="font-size:6.75px; font-family:Arial;" text-anchor="middle"><textPath startOffset="22.145653131862474" xlink:href="#id48">December</textPath></text></svg>