<?xml version="1.0" encoding="utf-8" ?>
<svg baseProfile="full" height="200mm" version="1.1" viewBox="0,0,200,200" width="200mm" xmlns="http://www.w3.org/2000/svg" xmlns:ev="http://www.w3.org/2001/xml-events" xmlns:xlink="http://www.w3.org/1999/xlink"><defs /><rect fill="#1a1a1a" height="200" width="200" x="0" y="0" /><text alignment-baseline="middle" fill="#e1ed5e" style="dominant-baseline: central; font-size:9.0px; font-family:Arial;" text-anchor="middle" x="100.0" y="100.0">2022</text><line stroke="#e1ed5e" stroke-width="0.3" x1="100.0" x2="100.0" y1="15.0" y2="10.0" /><path d="M 100.0 14.0 a86.0,86.0 0 0,1 42.46469731375804,11.215312516191453" fill="none" id="id13" stroke="none" /><text fill="#e1ed5e" style="font-size:6.75px; font-family:Arial;" text-anchor="middle"><textPath startOffset="22.20632615414155" xlink:href="#id13">January</textPath></text><path d="M 100.0 79.0 l 0.0 -13.277366899930115 a34.277366899930115,34.277366899930115 0 0,0 0.5900285245327161,0.005078561789306314 l -0.22854804526018774 13.275399714749367" fill="#ff0000" stroke="none" /><path d="M 100.36148047927253 79.00311137660856 l 1.084441437817585 -62.990665870174325 a84.0,84.0 0 0,0 1.4454934592205289,0.03733283143056143 l -2.1685615322329816 62.9626662466014" fill="#4dd2ff" stroke="none" /><path d="M 103.59715602781102 79.31037775812273 l 10.354036003942447 -59.552905668850094 a81.44629546278162,81.44629546278162 0 0,0 1.3791761921266577,0.25203563363878057 l -11.377607317172005 59.36585455386057" fill="#49efff" stroke="none" /><path d="M 105.36241919743992 79.69619591428918 l 10.686552986480544 -40.462647585003474 a62.85006886877301,62.85006886877301 0 0,0 1.0436167465226804,0.28525987967563954 l -11.381467622226934 40.27270116450154" fill="#48ff2c" stroke="none" /><path d="M 107.76421540070413 80.48803036053334 l 5.187456540954662 -13.036409902278173 a35.030598294602754,35.030598294602754 0 0,0 0.5583479193891937,0.2277641356001942 l -5.411088329932243 12.9451848804944" fill="#ff0e01" stroke="none" /><path d="M 109.41281617654863 81.2277094730956 l 23.748381228438973 -47.36218190201648 a73.98265645936385,73.98265645936385 0 0,0 1.1334830388630632,0.5806140372257417 l -24.560124754890793 46.94637533947824" fill="#3dffb1" stroke="none" /><line stroke="#e1ed5e" stroke-width="0.3" x1="143.23703022742887" x2="145.7803849466894" y1="26.81831364943548" y2="22.513508569990506" /><path d="M 143.74570117128098 25.957352633546492 a86.0,86.0 0 0,1 28.547481713284135,27.462654790039103" fill="none" id="id14" stroke="none" /><text fill="#e1ed5e" style="font-size:6.75px; font-family:Arial;" text-anchor="middle"><textPath startOffset="19.985693538727396" xlink:href="#id14">February</textPath></text><path d="M 111.60114157652 82.49532879139004 l 33.373998935545195 -50.357188939544 a81.41250104773601,81.41250104773601 0 0,0 1.1614668157392478,0.7842275786632874 l -34.235870445690985 49.775249448582045" fill="#49f0ff" stroke="none" /><path d="M 114.68862486808459 84.99185889309783 l 41.33505552815453 -42.2342017445147 a80.09580875588375,80.09580875588375 0 0,0 0.977032321900101,0.9728366346100126 l -42.05592365022195 41.516429259254565" fill="#47ffff" stroke="none" /><path d="M 117.45458315368197 88.32363383020206 l 33.75827139984971 -22.582833096241156 a61.6153325550659,61.6153325550659 0 0,0 0.5821280615459743,0.8866209752452031 l -34.14199609675361 21.998394057018277" fill="#57ff2a" stroke="none" /><line stroke="#e1ed5e" stroke-width="0.3" x1="172.23445277983987" x2="176.4835382374775" y1="55.19839476539836" y2="52.563006222186495" /><path d="M 173.08426987136738 54.67131705675599 a86.0,86.0 0 0,1 12.851231095245387,41.99856678651699" fill="none" id="id15" stroke="none" /><text fill="#e1ed5e" style="font-size:6.75px; font-family:Arial;" text-anchor="middle"><textPath startOffset="22.20632615414155" xlink:href="#id15">March</textPath></text><path d="M 117.84615892207809 88.93136811851018 l 23.749758061309446 -14.730190984115083 a48.94690563191636,48.94690563191636 0 0,0 0.43792144242914927,0.7198277076632179 l -23.99979530202482 14.319195503244783" fill="#fff617" stroke="none" /><path d="M 118.21658344932153 89.55222093294921 l 12.144859369321061 -6.965455835561422 a35.00054227870272,35.00054227870272 0 0,0 0.2952418388234915,0.5252022872973167 l -12.262958849436986 6.755370038329311" fill="#ff0d01" stroke="none" /><path d="M 118.56541770881063 90.18545643968196 l 38.6073488561913 -20.4096408193209 a64.67013652460163,64.67013652460163 0 0,0 0.5117888879350575,0.9886132323592717 l -38.95294717728647 19.74205486470128" fill="#32ff2f" stroke="none" /><path d="M 119.85752413597 93.16781622104841 l 13.191983714598658 -4.538836590600561 a34.95096670207519,34.95096670207519 0 0,0 0.1908367822548902,0.5705776887779982 l -13.268157790625319 4.3110857989002485" fill="#ff0c01" stroke="none" /><path d="M 120.08093135843002 93.85539295169968 l 13.364629421341167 -4.089471482896155 a34.97630482563967,34.97630482563967 0 0,0 0.1712075179475842,0.5772266387029642 l -13.433042836400453 3.8588154574466604" fill="#ff0d01" stroke="none" /><path d="M 120.45610955862082 95.25157060432595 l 37.580549583911186 -8.72348604892109 a59.579747483291385,59.579747483291385 0 0,0 0.22329812133029794,1.0010016935621808 l -37.725142092243516 8.075306185808946" fill="#72ff27" stroke="none" /><line stroke="#e1ed5e" stroke-width="0.3" x1="184.98032266829074" x2="189.97916517819016" y1="98.17113171792111" y2="98.06355123074" /><path d="M 185.9800911702706 98.14961562048488 a86.0,86.0 0 0,1 -9.607161424134198,41.387399972396054" fill="none" id="id16" stroke="none" /><text fill="#e1ed5e" style="font-size:6.75px; font-family:Arial;" text-anchor="middle"><textPath startOffset="21.466115282336823" xlink:href="#id16">April</textPath></text><path d="M 119.9155931802556 106.66101706037122 l 13.296252932936277 4.447096645512156 a35.02023575519121,35.02023575519121 0 0,0 -0.19612861082572366,0.5700415488272592 l -13.217733491167323 -4.675310897428715" fill="#ff0d01" stroke="none" /><path d="M 119.54520255179757 107.68017299344265 l 18.638630435679847 7.323940784318005 a41.025949493845424,41.025949493845424 0 0,0 -0.26392850115365574,0.6550488952445321 l -18.5097993202688 -7.64368904740535" fill="#ff760a" stroke="none" /><path d="M 118.81262510543309 109.33194174019688 l 30.955343335137353 15.355297781800095 a55.55457207033517,55.55457207033517 0 0,0 -0.43232390796136944,0.8530160849875574 l -30.686440757389715 -15.885868078490347" fill="#a8ff21" stroke="none" /><line stroke="#e1ed5e" stroke-width="0.3" x1="174.80103733775053" x2="179.2010983576182" y1="140.37084112569926" y2="142.7455964860345" /><path d="M 175.68104954172406 140.8457921977663 a86.0,86.0 0 0,1 -30.038265399797805,32.042727171017184" fill="none" id="id17" stroke="none" /><text fill="#e1ed5e" style="font-size:6.75px; font-family:Arial;" text-anchor="middle"><textPath startOffset="22.206326154141568" xlink:href="#id17">May</textPath></text><path d="M 112.04921762599082 117.19931262002967 l 20.512981021915405 29.28067068882797 a56.751084828198586,56.751084828198586 0 0,0 -0.8049009479172233,0.5536182114561593 l -20.0059231893753 -29.629429689649225" fill="#97ff23" stroke="none" /><line stroke="#e1ed5e" stroke-width="0.3" x1="143.8653032363475" x2="146.44561519142675" y1="172.8068346515853" y2="177.08958963109032" /><path d="M 144.38136562736335 173.6633856474863 a86.0,86.0 0 0,1 -40.68145358897372,12.25698825130547" fill="none" id="id18" stroke="none" /><text fill="#e1ed5e" style="font-size:6.75px; font-family:Arial;" text-anchor="middle"><textPath startOffset="21.466115282336833" xlink:href="#id18">June</textPath></text><line stroke="#e1ed5e" stroke-width="0.3" x1="102.19456741930631" x2="102.32365962044197" y1="184.97166512339345" y2="189.96999836594603" /><path d="M 102.22038585953345 185.97133177190398 a86.0,86.0 0 0,1 -42.740103519485714,-10.115201625700543" fill="none" id="id19" stroke="none" /><text fill="#e1ed5e" style="font-size:6.75px; font-family:Arial;" text-anchor="middle"><textPath startOffset="22.20632615414155" xlink:href="#id19">July</textPath></text><line stroke="#e1ed5e" stroke-width="0.3" x1="58.666819895761336" x2="56.23545636021788" y1="174.27360380694188" y2="178.64263932499728" /><path d="M 58.180547188652646 175.14741091055294 a86.0,86.0 0 0,1 -31.652253787137756,-30.449443065178592" fill="none" id="id20" stroke="none" /><text fill="#e1ed5e" style="font-size:6.75px; font-family:Arial;" text-anchor="middle"><textPath startOffset="22.20632615414155" xlink:href="#id20">August</textPath></text><line stroke="#e1ed5e" stroke-width="0.3" x1="26.63291911575756" x2="22.317208475507996" y1="142.92168965132927" y2="145.44649492493687" /><path d="M 25.769776987707644 143.4266507060508 a86.0,86.0 0 0,1 -11.730757126820373,-40.83630448921669" fill="none" id="id21" stroke="none" /><text fill="#e1ed5e" style="font-size:6.75px; font-family:Arial;" text-anchor="middle"><textPath startOffset="21.46611528233685" xlink:href="#id21">September</textPath></text><path d="M 79.50377843672027 104.57218783832718 l -24.35071626507114 5.432027967592796 a45.94923466687326,45.94923466687326 0 0,0 -0.16556157194977222,-0.7734485458639727 l 24.44061187574535 -5.012065602312659" fill="#ffc712" stroke="none" /><line stroke="#e1ed5e" stroke-width="0.3" x1="15.007084014347285" x2="10.007500721073583" y1="101.09737516637583" y2="101.16192664675087" /><path d="M 14.007167355692545 101.11028546245083 a86.0,86.0 0 0,1 10.666146001902534,-42.60595125391555" fill="none" id="id22" stroke="none" /><text fill="#e1ed5e" style="font-size:6.75px; font-family:Arial;" text-anchor="middle"><textPath startOffset="22.20632615414155" xlink:href="#id22">October</textPath></text><path d="M 79.62865764111835 94.90015583598534 l -20.777464310679793 -5.201514374512735 a42.41865483567619,42.41865483567619 0 0,0 0.18341759315270112,-0.7067828071624797 l 20.684850385656784 5.558393607224079" fill="#ff8e0d" stroke="none" /><line stroke="#e1ed5e" stroke-width="0.3" x1="26.266209847984243" x2="21.928928074336255" y1="57.711370442889674" y2="55.22380399835377" /><path d="M 25.398753493254645 57.213857153982495 a86.0,86.0 0 0,1 29.58750427330803,-30.492523968695096" fill="none" id="id23" stroke="none" /><text fill="#e1ed5e" style="font-size:6.75px; font-family:Arial;" text-anchor="middle"><textPath startOffset="21.46611528233685" xlink:href="#id23">November</textPath></text><line stroke="#e1ed5e" stroke-width="0.3" x1="56.762969772571076" x2="54.21961505331055" y1="26.818313649435495" y2="22.513508569990535" /><path d="M 56.25429882871897 25.957352633546506 a86.0,86.0 0 0,1 42.265352541879196,-11.944610805530505" fill="none" id="id24" stroke="none" /><text fill="#e1ed5e" style="font-size:6.75px; font-family:Arial;" text-anchor="middle"><textPath startOffset="22.20632615414155" xlink:href="#id24">December</textPath></text></svg>