<?xml version="1.0" encoding="utf-8" ?>
<svg baseProfile="full" height="200mm" version="1.1" viewBox="0,0,200,200" width="200mm" xmlns="http://www.w3.org/2000/svg" xmlns:ev="http://www.w3.org/2001/xml-events" xmlns:xlink="http://www.w3.org/1999/xlink"><defs /><rect fill="#1a1a1a" height="200" width="200" x="0" y="0" /><text alignment-baseline="middle" fill="#e1ed5e" style="dominant-baseline: central; font-size:9.0px; font-family:Arial;" text-anchor="middle" x="100.0" y="100.0">2024</text><line stroke="#e1ed5e" stroke-width="0.3" x1="100.0" x2="100.0" y1="15.0" y2="10.0" /><path d="M 100.0 14.0 a86.0,86.0 0 0,1 42.35913384403234,11.155469271406648" fill="none" id="id37" stroke="none" /><text fill="#e1ed5e" style="font-size:6.75px; font-family:Arial;" text-anchor="middle"><textPath startOffset="22.145653131862478" xlink:href="#id37">January</textPath></text><path d="M 100.0 79.0 l 0.0 -54.34578332460316 a75.34578332460316,75.34578332460316 0 0,0 1.2934105621768697,0.011102374089425526 l -0.9329176373280149 54.33777534870817" fill="#42ffd6" stroke="none" /><path d="M 100.36049292484886 79.00309439819443 l 0.18030569171586736 -10.50190261019307 a31.50345031770252,31.50345031770252 0 0,0 0.5406392407301839,0.013924949061796487 l -0.3605582465167926 10.497259943781229" fill="#ff6a09" stroke="none" /><path d="M 100.72087961077811 79.0123766808444 l 0.358869580933231 -10.448096287811603 a31.454257669270536,31.454257669270536 0 0,0 0.5394768253283252,0.02316745610551071 l -0.5381721668623924 10.440396263280261" fill="#ff6909" stroke="none" /><path d="M 101.08105385017728 79.02784411241856 l 1.0162109485207074 -19.714220918364422 a40.740394907649915,40.740394907649915 0 0,0 0.6981267239938901,0.04199757011388671 l -1.35448202464706 19.693871370425843" fill="#ffe715" stroke="none" /><path d="M 101.44090949804482 79.04949213459386 l 0.6561521650095897 -9.540308473634008 a30.56284588580929,30.56284588580929 0 0,0 0.523106400917431,0.04049174378710724 l -0.8198275607022543 9.527638962851848" fill="#ff5c08" stroke="none" /><path d="M 101.80034050326958 79.07731436759882 l 0.6885462038057472 -8.001950597371918 a29.03151973399531,29.03151973399531 0 0,0 0.4961631003870252,0.04698716146548176 l -0.8258088675777854 7.988951680401253" fill="#ff4606" stroke="none" /><path d="M 102.15924093988457 79.11130261209362 l 0.3389095651163322 -3.2786426085272686 a24.296112414311416,24.296112414311416 0 0,0 0.41449641946280813,0.04644518835760362 l -0.395141886179937 3.272341659662694" fill="#ff0000" stroke="none" /><path d="M 102.51750503828377 79.15144685158666 l 1.3089243912019815 -10.83977164781867 a31.918513288847386,31.918513288847386 0 0,0 0.5434083996684013,0.07035509675224577 l -1.4948106127611744 10.815704954866026" fill="#ff700a" stroke="none" /><path d="M 102.87502721639298 79.19773525538626 l 3.150385835342485 -22.79462254158976 a44.01129608963994,44.01129608963994 0 0,0 0.7475106849924459,0.1098583287497152 l -3.541221625942613 22.737183139541163" fill="#eeff19" stroke="none" /><path d="M 103.23170211078529 79.25015418208739 l 8.51228083821049 -54.65494927956688 a76.31385365187091,76.31385365187091 0 0,0 1.292693074889813,0.2127121535457122 l -9.449251416153373 54.500771127525496" fill="#43ffe0" stroke="none" /><path d="M 103.58742460773223 79.30868818359171 l 1.95778612349696 -11.29199009891402 a32.46045229907308,32.46045229907308 0 0,0 0.5482188077954318,0.09990372890966112 l -2.1513396648434453 11.256718196072994" fill="#ff770b" stroke="none" /><path d="M 103.94208987418118 79.37332000966035 l 11.82626962254352 -61.88003997101897 a84.0,84.0 0 0,0 1.4140140578761722,0.2828424133485634 l -12.88678016595065 61.66790816100754" fill="#4dd2ff" stroke="none" /><path d="M 104.29559338865022 79.4440306129975 l 8.530197102069293 -40.820081099513054 a62.70183789200392,62.70183789200392 0 0,0 1.0517116120294414,0.22921565082405154 l -9.229671130717868 40.66763399055528" fill="#32ff45" stroke="none" /><line stroke="#e1ed5e" stroke-width="0.3" x1="143.13028292997686" x2="145.6673583964461" y1="26.7553504044142" y2="22.446841604673864" /><path d="M 143.63769802327073 25.89364864446614 a86.0,86.0 0 0,1 29.32050498858742,28.57503671076993" fill="none" id="id38" stroke="none" /><text fill="#e1ed5e" style="font-size:6.75px; font-family:Arial;" text-anchor="middle"><textPath startOffset="20.669276256404974" xlink:href="#id38">February</textPath></text><line stroke="#e1ed5e" stroke-width="0.3" x1="172.87174338648825" x2="177.1583165268699" y1="56.24261187166439" y2="53.66864786411523" /><path d="M 173.72905801456457 55.72781907015455 a86.0,86.0 0 0,1 12.242430191666344,42.057860355516425" fill="none" id="id39" stroke="none" /><text fill="#e1ed5e" style="font-size:6.75px; font-family:Arial;" text-anchor="middle"><textPath startOffset="22.145653131862474" xlink:href="#id39">March</textPath></text><line stroke="#e1ed5e" stroke-width="0.3" x1="184.99686870605535" x2="189.99668451229388" y1="99.2704041080226" y2="99.22748670261217" /><path d="M 185.99683186730306 99.26182062694052 a86.0,86.0 0 0,1 -10.086455211305974,41.156179273409016" fill="none" id="id40" stroke="none" /><text fill="#e1ed5e" style="font-size:6.75px; font-family:Arial;" text-anchor="middle"><textPath startOffset="21.40746469413373" xlink:href="#id40">April</textPath></text><line stroke="#e1ed5e" stroke-width="0.3" x1="174.33088141563837" x2="178.70328620479359" y1="141.23008692659167" y2="143.65538615756765" /><path d="M 175.20536237346943 141.71514677278685 a86.0,86.0 0 0,1 -30.301960400862466,31.631185727798858" fill="none" id="id41" stroke="none" /><text fill="#e1ed5e" style="font-size:6.75px; font-family:Arial;" text-anchor="middle"><textPath startOffset="22.145653131862474" xlink:href="#id41">May</textPath></text><line stroke="#e1ed5e" stroke-width="0.3" x1="143.1302829299769" x2="145.66735839644613" y1="173.24464959558577" y2="177.55315839532614" /><path d="M 143.63769802327073 174.10635135553383 a86.0,86.0 0 0,1 -40.68552437913181,11.842963189579606" fill="none" id="id42" stroke="none" /><text fill="#e1ed5e" style="font-size:6.75px; font-family:Arial;" text-anchor="middle"><textPath startOffset="21.407464694133747" xlink:href="#id42">June</textPath></text><line stroke="#e1ed5e" stroke-width="0.3" x1="101.45913802915013" x2="101.54496967792366" y1="184.9874750549273" y2="189.98673829345242" /><path d="M 101.47630435890484 185.9873277026323 a86.0,86.0 0 0,1 -42.54439059252881,-10.42667462771756" fill="none" id="id43" stroke="none" /><text fill="#e1ed5e" style="font-size:6.75px; font-family:Arial;" text-anchor="middle"><textPath startOffset="22.145653131862474" xlink:href="#id43">July</textPath></text><line stroke="#e1ed5e" stroke-width="0.3" x1="58.13341422392154" x2="55.67067388415222" y1="173.97424548756322" y2="178.32567169271397" /><path d="M 57.64086615596768 174.84453072859336 a86.0,86.0 0 0,1 -31.369924170532247,-30.572349798747897" fill="none" id="id44" stroke="none" /><text fill="#e1ed5e" style="font-size:6.75px; font-family:Arial;" text-anchor="middle"><textPath startOffset="22.145653131862474" xlink:href="#id44">August</textPath></text><line stroke="#e1ed5e" stroke-width="0.3" x1="26.387840678322732" x2="22.057713659400548" y1="142.50000000000003" y2="145.00000000000006" /><path d="M 25.521815274538298 143.00000000000003 a86.0,86.0 0 0,1 -11.493303480769221,-40.785679425670985" fill="none" id="id45" stroke="none" /><text fill="#e1ed5e" style="font-size:6.75px; font-family:Arial;" text-anchor="middle"><textPath startOffset="21.40746469413373" xlink:href="#id45">September</textPath></text><line stroke="#e1ed5e" stroke-width="0.3" x1="15.003131293944662" x2="10.003315487706104" y1="100.72959589197737" y2="100.7725132973878" /><path d="M 14.003168132696942 100.73817937305945 a86.0,86.0 0 0,1 10.791469493833604,-42.45332614584628" fill="none" id="id46" stroke="none" /><text fill="#e1ed5e" style="font-size:6.75px; font-family:Arial;" text-anchor="middle"><textPath startOffset="22.145653131862435" xlink:href="#id46">October</textPath></text><line stroke="#e1ed5e" stroke-width="0.3" x1="26.387840678322718" x2="22.05771365940052" y1="57.49999999999999" y2="54.99999999999999" /><path d="M 25.521815274538284 56.99999999999999 a86.0,86.0 0 0,1 29.574782752854787,-30.34633250058573" fill="none" id="id47" stroke="none" /><text fill="#e1ed5e" style="font-size:6.75px; font-family:Arial;" text-anchor="middle"><textPath startOffset="21.40746469413373" xlink:href="#id47">November</textPath></text><line stroke="#e1ed5e" stroke-width="0.3" x1="56.869717070023135" x2="54.33264160355391" y1="26.7553504044142" y2="22.446841604673864" /><path d="M 56.362301976729285 25.89364864446614 a86.0,86.0 0 0,1 42.16139366436587,-11.88097634709845" fill="none" id="id48" stroke="none" /><text fill="#e1ed5e" style="font-size:6.75px; font-family:Arial;" text-anchor="middle"><textPath startOffset="22.145653131862474" xlink:href="#id48">December</textPath></text></svg>