<?xml version="1.0" encoding="utf-8" ?>
<svg baseProfile="full" height="200mm" version="1.1" viewBox="0,0,200,200" width="200mm" xmlns="http://www.w3.org/2000/svg" xmlns:ev="http://www.w3.org/2001/xml-events" xmlns:xlink="http://www.w3.org/1999/xlink"><defs /><rect fill="#1a1a1a" height="200" width="200" x="0" y="0" /><text alignment-baseline="middle" fill="#e1ed5e" style="dominant-baseline: central; font-size:9.0px; font-family:Arial;" text-anchor="middle" x="100.0" y="100.0">2021</text><line stroke="#e1ed5e" stroke-width="0.3" x1="100.0" x2="100.0" y1="15.0" y2="10.0" /><path d="M 100.0 14.0 a86.0,86.0 0 0,1 42.46469731375804,11.215312516191453" fill="none" id="id1" stroke="none" /><text fill="#e1ed5e" style="font-size:6.75px; font-family:Arial;" text-anchor="middle"><textPath startOffset="22.20632615414155" xlink:href="#id1">January</textPath></text><line stroke="#e1ed5e" stroke-width="0.3" x1="143.23703022742887" x2="145.7803849466894" y1="26.81831364943548" y2="22.513508569990506" /><path d="M 143.74570117128098 25.957352633546492 a86.0,86.0 0 0,1 28.547481713284135,27.462654790039103" fill="none" id="id2" stroke="none" /><text fill="#e1ed5e" style="font-size:6.75px; font-family:Arial;" text-anchor="middle"><textPath startOffset="19.985693538727396" xlink:href="#id2">February</textPath></text><line stroke="#e1ed5e" stroke-width="0.3" x1="172.23445277983987" x2="176.4835382374775" y1="55.19839476539836" y2="52.563006222186495" /><path d="M 173.08426987136738 54.67131705675599 a86.0,86.0 0 0,1 12.851231095245387,41.99856678651699" fill="none" id="id3" stroke="none" /><text fill="#e1ed5e" style="font-size:6.75px; font-family:Arial;" text-anchor="middle"><textPath startOffset="22.20632615414155" xlink:href="#id3">March</textPath></text><line stroke="#e1ed5e" stroke-width="0.3" x1="184.98032266829074" x2="189.97916517819016" y1="98.17113171792111" y2="98.06355123074" /><path d="M 185.9800911702706 98.14961562048488 a86.0,86.0 0 0,1 -9.607161424134198,41.387399972396054" fill="none" id="id4" stroke="none" /><text fill="#e1ed5e" style="font-size:6.75px; font-family:Arial;" text-anchor="middle"><textPath startOffset="21.466115282336823" xlink:href="#id4">April</textPath></text><line stroke="#e1ed5e" stroke-width="0.3" x1="174.80103733775053" x2="179.2010983576182" y1="140.37084112569926" y2="142.7455964860345" /><path d="M 175.68104954172406 140.8457921977663 a86.0,86.0 0 0,1 -30.038265399797805,32.042727171017184" fill="none" id="id5" stroke="none" /><text fill="#e1ed5e" style="font-size:6.75px; font-family:Arial;" text-anchor="middle"><textPath startOffset="22.206326154141568" xlink:href="#id5">May</textPath></text><line stroke="#e1ed5e" stroke-width="0.3" x1="143.8653032363475" x2="146.44561519142675" y1="172.8068346515853" y2="177.08958963109032" /><path d="M 144.38136562736335 173.6633856474863 a86.0,86.0 0 0,1 -40.68145358897372,12.25698825130547" fill="none" id="id6" stroke="none" /><text fill="#e1ed5e" style="font-size:6.75px; font-family:Arial;" text-anchor="middle"><textPath startOffset="21.466115282336833" xlink:href="#id6">June</textPath></text><line stroke="#e1ed5e" stroke-width="0.3" x1="102.19456741930631" x2="102.32365962044197" y1="184.97166512339345" y2="189.96999836594603" /><path d="M 102.22038585953345 185.97133177190398 a86.0,86.0 0 0,1 -42.740103519485714,-10.115201625700543" fill="none" id="id7" stroke="none" /><text fill="#e1ed5e" style="font-size:6.75px; font-family:Arial;" text-anchor="middle"><textPath startOffset="22.20632615414155" xlink:href="#id7">July</textPath></text><line stroke="#e1ed5e" stroke-width="0.3" x1="58.666819895761336" x2="56.23545636021788" y1="174.27360380694188" y2="178.64263932499728" /><path d="M 58.180547188652646 175.14741091055294 a86.0,86.0 0 0,1 -31.652253787137756,-30.449443065178592" fill="none" id="id8" stroke="none" /><text fill="#e1ed5e" style="font-size:6.75px; font-family:Arial;" text-anchor="middle"><textPath startOffset="22.20632615414155" xlink:href="#id8">August</textPath></text><line stroke="#e1ed5e" stroke-width="0.3" x1="26.63291911575756" x2="22.317208475507996" y1="142.92168965132927" y2="145.44649492493687" /><path d="M 25.769776987707644 143.4266507060508 a86.0,86.0 0 0,1 -11.730757126820373,-40.83630448921669" fill="none" id="id9" stroke="none" /><text fill="#e1ed5e" style="font-size:6.75px; font-family:Arial;" text-anchor="middle"><textPath startOffset="21.46611528233685" xlink:href="#id9">September</textPath></text><line stroke="#e1ed5e" stroke-width="0.3" x1="15.007084014347285" x2="10.007500721073583" y1="101.09737516637583" y2="101.16192664675087" /><path d="M 14.007167355692545 101.11028546245083 a86.0,86.0 0 0,1 10.666146001902534,-42.60595125391555" fill="none" id="id10" stroke="none" /><text fill="#e1ed5e" style="font-size:6.75px; font-family:Arial;" text-anchor="middle"><textPath startOffset="22.20632615414155" xlink:href="#id10">October</textPath></text><line stroke="#e1ed5e" stroke-width="0.3" x1="26.266209847984243" x2="21.928928074336255" y1="57.711370442889674" y2="55.22380399835377" /><path d="M 25.398753493254645 57.213857153982495 a86.0,86.0 0 0,1 29.58750427330803,-30.492523968695096" fill="none" id="id11" stroke="none" /><text fill="#e1ed5e" style="font-size:6.75px; font-family:Arial;" text-anchor="middle"><textPath startOffset="21.46611528233685" xlink:href="#id11">November</textPath></text><path d="M 84.07557802195018 86.31012108654704 l -18.52120687920427 -15.922278363184262 a45.42445603359488,45.42445603359488 0 0,0 0.514828101359338,-0.5885375168897393 l 18.24438691426709 16.238731436276943" fill="#ffbe11" stroke="none" /><path d="M 85.05521093208273 85.24692304244772 l -25.71017173801113 -25.38036104216654 a57.127214913811876,57.127214913811876 0 0,0 0.6968546331936453,-0.6938621179390386 l 25.26948130465017 25.81915901075569" fill="#93ff23" stroke="none" /><path d="M 85.31137513191541 84.99185889309783 l -10.275644324988855 -10.499166625791945 a35.690859952018435,35.690859952018435 0 0,0 0.4427650984468072,-0.42593967390349624 l 10.093395982929621 10.674489386457756" fill="#ff1802" stroke="none" /><path d="M 88.70189139769569 82.29822771554957 l -21.97086582263763 -34.423749795184555 a61.837648009622384,61.837648009622384 0 0,0 0.9021843339283349,-0.564947747139376 l 21.375062336337056 34.796841883646856" fill="#55ff2b" stroke="none" /><path d="M 89.00827224532344 82.1063720568725 l -7.75678482486256 -12.627407154615456 a35.819552026550994,35.819552026550994 0 0,0 0.5281472418338413,-0.3182028037250702 l 7.538275516811069 12.759056567799146" fill="#ff1b02" stroke="none" /><line stroke="#e1ed5e" stroke-width="0.3" x1="56.762969772571076" x2="54.21961505331055" y1="26.818313649435495" y2="22.513508569990535" /><path d="M 56.25429882871897 25.957352633546506 a86.0,86.0 0 0,1 42.265352541879196,-11.944610805530505" fill="none" id="id12" stroke="none" /><text fill="#e1ed5e" style="font-size:6.75px; font-family:Arial;" text-anchor="middle"><textPath startOffset="22.20632615414155" xlink:href="#id12">December</textPath></text><path d="M 89.63071344664047 81.73862282372117 l -7.920322274136288 -13.948499895474962 a37.04032899476331,37.04032899476331 0 0,0 0.5571498886805706,-0.3100533098373541 l 7.679048296383672 14.0827686028725" fill="#ff3004" stroke="none" /><path d="M 90.91171255644093 81.06846463323043 l -21.06863309158526 -43.88742928520751 a69.68258158327197,69.68258158327197 0 0,0 1.0857932850923435,-0.5097945062492893 l 20.310061595193307 44.24358877409681" fill="#37ff76" stroke="none" /><path d="M 91.56875222667455 80.76684994638697 l -10.042912865817646 -22.909639867865817 a46.01422990431072,46.01422990431072 0 0,0 0.7281559985701601,-0.31175839767686714 l 9.647073109457178 23.07911779350547" fill="#ffc712" stroke="none" /><path d="M 91.90106846888425 80.62456947434976 l -24.29679459334727 -58.12629157695071 a84.0,84.0 0 0,0 1.338864521646478,-0.5461564552656921 l 23.29264620211241 58.53590891839998" fill="#4dd2ff" stroke="none" /><path d="M 92.23578459929587 80.48803036053334 l -4.938104891347057 -12.409773266688015 a34.35617282190337,34.35617282190337 0 0,0 0.5513623155791434,-0.2139200125171908 l 4.723759410768237 12.492935983095757" fill="#ff0000" stroke="none" /><path d="M 92.57280143429618 80.3572730644239 l -5.089996504833177 -13.461523959942829 a35.39168828676222,35.39168828676222 0 0,0 0.5716898184579845,-0.2105581848269204 l 4.857524360602623 13.547145412576072" fill="#ff1302" stroke="none" /><path d="M 92.91201910852362 80.23233633223022 l -16.41029218929163 -45.76664943860724 a69.61978908401696,69.61978908401696 0 0,0 1.1315469946520682,-0.3947745279264495 l 15.620063190576277 46.0423448197059" fill="#37ff75" stroke="none" /><path d="M 98.91598698831166 79.02799685794201 l -2.8465359124857756 -55.070888870286105 a76.14440649480665,76.14440649480665 0 0,0 1.3095357365653957,-0.05639136349810908 l 1.8981593435310555 55.11172796030841" fill="#41ffcd" stroke="none" /></svg>