<?xml version="1.0" encoding="utf-8" ?>
<svg baseProfile="full" height="200mm" version="1.1" viewBox="0,0,200,200" width="200mm" xmlns="http://www.w3.org/2000/svg" xmlns:ev="http://www.w3.org/2001/xml-events" xmlns:xlink="http://www.w3.org/1999/xlink"><defs /><rect fill="#1a1a1a" height="200" width="200" x="0" y="0" /><text alignment-baseline="middle" fill="#e1ed5e" style="dominant-baseline: central; font-size:9.0px; font-family:Arial;" text-anchor="middle" x="100.0" y="100.0">2024</text><line stroke="#e1ed5e" stroke-width="0.3" x1="100.0" x2="100.0" y1="15.0" y2="10.0" /><path d="M 100.0 14.0 a86.0,86.0 0 0,1 42.35913384403234,11.155469271406648" fill="none" id="id37" stroke="none" /><text fill="#e1ed5e" style="font-size:6.75px; font-family:Arial;" text-anchor="middle"><textPath startOffset="22.145653131862478" xlink:href="#id37">January</textPath></text><path d="M 100.0 79.0 l 0.0 -40.32017640200733 a61.32017640200733,61.32017640200733 0 0,0 1.0526423687336832,0.009035668720990557 l -0.6921494438848284 40.31423513148077" fill="#30ff37" stroke="none" /><path d="M 100.36049292484886 79.00309439819443 l 0.133772242325533 -7.791562470827223 a28.792710744639507,28.792710744639507 0 0,0 0.4941195049609709,0.012726765685244633 l -0.2675050613572452 7.788117987791933" fill="#ff4e07" stroke="none" /><path d="M 100.72087961077811 79.0123766808444 l 0.26625220805294153 -7.751642530819994 a28.756213777605055,28.756213777605055 0 0,0 0.49320225834993586,0.021180227092251633 l -0.3992802270037137 7.745929735301911" fill="#ff4e07" stroke="none" /><path d="M 101.08105385017728 79.02784411241856 l 0.7539463450415783 -14.626357675421373 a35.64577665883784,35.64577665883784 0 0,0 0.6108254311098877,0.03674574112221938 l -1.0049161282839283 14.611259956474463" fill="#ffac10" stroke="none" /><path d="M 101.44090949804482 79.04949213459386 l 0.48681184484406115 -7.0781373835188415 a28.09485832080158,28.09485832080158 0 0,0 0.48086491275681464,0.037221985449633205 l -0.6082457523761093 7.068737631074155" fill="#ff4406" stroke="none" /><path d="M 101.80034050326958 79.07731436759882 l 0.5108456019956161 -5.936800242975237 a26.958738151158272,26.958738151158272 0 0,0 0.46073823300189587,0.04363238969301425 l -0.6126833983825248 5.92715609777704" fill="#ff3404" stroke="none" /><path d="M 102.15924093988457 79.11130261209362 l 0.25144349043970443 -2.4324876788575067 a23.44544886200429,23.44544886200429 0 0,0 0.3999839332433617,0.04481903400656514 l -0.2931633252838628 2.4278128843439704" fill="#ff0000" stroke="none" /><path d="M 102.51750503828377 79.15144685158666 l 0.9711160484140346 -8.042233974013993 a29.1006539039927,29.1006539039927 0 0,0 0.4954347222932241,0.06414394374954795 l -1.1090285925980505 8.024378434064047" fill="#ff5207" stroke="none" /><path d="M 102.87502721639298 79.19773525538626 l 2.337331524999631 -16.911766574500525 a38.07252082523698,38.07252082523698 0 0,0 0.6466434449805109,0.09503431802213666 l -2.627300075587824 16.869151183179508" fill="#ffcc13" stroke="none" /><path d="M 103.23170211078529 79.25015418208739 l 6.3154240123850505 -40.54955253901462 a62.038406299106164,62.038406299106164 0 0,0 1.0508788950155317,0.17292172226848654 l -7.010580410453652 40.43516481825046" fill="#31ff40" stroke="none" /><path d="M 103.58742460773223 79.30868818359171 l 1.4525189817452306 -8.377743494807893 a29.502728824155582,29.502728824155582 0 0,0 0.4982663418757214,0.09080072561489999 l -1.5961200571720058 8.351574595261628" fill="#ff5808" stroke="none" /><path d="M 103.94208987418118 79.37332000966035 l 8.774135695322363 -45.90998555476186 a67.74090532754337,67.74090532754337 0 0,0 1.140316576504824,0.22809525172927292 l -9.560948757358144 45.75260090636973" fill="#38ff84" stroke="none" /><path d="M 104.29559338865022 79.4440306129975 l 6.328716431319138 -30.28519914499972 a51.93939137928121,51.93939137928121 0 0,0 0.8711907477005234,0.1898719686480722 l -6.847669595638795 30.17209571821793" fill="#8bff24" stroke="none" /><path d="M 104.64783097203109 79.52079915486377 l 13.943492916093248 -61.4376025354087 a84.0,84.0 0 0,0 1.40347138504046,0.3312154254150901 l -14.996096454873593 61.18919096634738" fill="#4dd2ff" stroke="none" /><path d="M 104.9986988182912 79.60360301121754 l 3.7390606455670605 -15.256643391487543 a36.70814254093236,36.70814254093236 0 0,0 0.6107443190156898,0.15524881759670742 l -4.000410257808144 15.190209342055567" fill="#ffbb11" stroke="none" /><path d="M 105.3480935250658 79.69241777938227 l 4.28424787608082 -16.26798701055768 a37.82266867174695,37.82266867174695 0 0,0 0.6264489347770623,0.17074144286816428 l -4.562878211792575 16.192045073545373" fill="#ffc912" stroke="none" /><path d="M 105.69591212413111 79.78721728523813 l 2.1525430759945317 -7.638615998816823 a28.93611341094571,28.93611341094571 0 0,0 0.47694980656139224,0.13883313754906257 l -2.2833528949375284 7.600539166965245" fill="#ff5007" stroke="none" /><path d="M 106.04205211174951 79.88797359093562 l 2.234655484240123 -7.438441324728052 a28.766858726323434,28.766858726323434 0 0,0 0.4717208221556172,0.14614031652420598 l -2.3620169392673707 7.398984420397199" fill="#ff4e07" stroke="none" /><path d="M 106.38641147887787 79.99465700312896 l 8.126283558823786 -25.455467506560954 a47.72110234357839,47.72110234357839 0 0,0 0.7782567850981252,0.2558284634057088 l -8.562063081569654 25.312218121753222" fill="#bbff1f" stroke="none" /><path d="M 106.72888874123014 80.10723608172694 l 5.119208862570789 -15.134031378387 a36.97639524863558,36.97639524863558 0 0,0 0.5995356739401155,0.20854962910532013 l -5.3782503085559235 15.043923316713089" fill="#ffbe11" stroke="none" /><path d="M 107.40779381753099 80.34994680014964 l 6.533587566848265 -17.331117257963857 a39.52175455789669,39.52175455789669 0 0,0 0.6327766722517993,0.2447716104181448 l -6.83013650159359 17.216405759407674" fill="#ffdf14" stroke="none" /><path d="M 107.74402155503746 80.48000691201159 l 2.8494371447488316 -7.182442994876906 a28.72701620397749,28.72701620397749 0 0,0 0.45682185260134445,0.18578547052158426 l -2.9723134585406155 7.1324702677760285" fill="#ff4d07" stroke="none" /><path d="M 108.07796709384702 80.6158196554323 l 3.104924546679471 -7.450688603937725 a29.071760471757088,29.071760471757088 0 0,0 0.4590083845467335,0.19592338503730394 l -3.2323680063966345 7.39629056924102" fill="#ff5207" stroke="none" /><path d="M 108.4095320186766 80.7573450057729 l 3.0762882158882507 -7.039149463926968 a28.682003277968334,28.682003277968334 0 0,0 0.4494696599062009,0.20104206185277385 l -3.1966712786500833 6.985303651164341" fill="#ff4d07" stroke="none" /><path d="M 108.73861861582097 80.90454125486305 l 16.83922342634374 -36.79674218253795 a61.466772552929044,61.466772552929044 0 0,0 0.955694998115454,0.4473135149874053 l -17.4684071383307 36.50225243598001" fill="#30ff39" stroke="none" /><path d="M 109.3889696526874 81.21577127319529 l 17.22897155437431 -34.469484339247614 a59.535474714022605,59.535474714022605 0 0,0 0.9102485844301054,0.4647794129879556 l -17.818147360517997 34.16864697458682" fill="#3bff2e" stroke="none" /><path d="M 109.71004243097381 81.37971332152246 l 3.5817707164319015 -6.868517622929609 a28.746329182366555,28.746329182366555 0 0,0 0.4355906405195354,0.23192748133625293 l -3.6991501727379963 6.806019673870783" fill="#ff4d07" stroke="none" /><path d="M 110.02825361518725 81.54914285379988 l 8.108443645093283 -14.918623033930594 a37.97975770069108,37.97975770069108 0 0,0 0.5701590165507604,0.3162575953178748 l -8.363346849800143 14.777232523179572" fill="#ffcb12" stroke="none" /><path d="M 110.34350942703115 81.72400993836675 l 15.950632756616145 -28.183239720829484 a53.383910920365636,53.383910920365636 0 0,0 0.7936599564003685,0.4582197894727794 l -16.43208518087691 27.905273034080533" fill="#7bff26" stroke="none" /><line stroke="#e1ed5e" stroke-width="0.3" x1="143.13028292997686" x2="145.6673583964461" y1="26.7553504044142" y2="22.446841604673864" /><path d="M 143.63769802327073 25.89364864446614 a86.0,86.0 0 0,1 29.32050498858742,28.57503671076993" fill="none" id="id38" stroke="none" /><text fill="#e1ed5e" style="font-size:6.75px; font-family:Arial;" text-anchor="middle"><textPath startOffset="20.669276256404974" xlink:href="#id38">February</textPath></text><path d="M 110.65571695917076 81.90426304109057 l 12.706965815608458 -21.57920596297437 a46.04254600138553,46.04254600138553 0 0,0 0.677630608272655,0.4068977103589507 l -13.075529180438545 21.357894252079497" fill="#cfff1d" stroke="none" /><path d="M 110.96478420261332 82.08984904055464 l 17.03883333974185 -27.8316537424306 a53.63315479107176,53.63315479107176 0 0,0 0.7810925057754111,0.48745949295580787 l -17.514089974306973 27.535058452633248" fill="#78ff26" stroke="none" /><path d="M 111.27062007382361 82.28071324371311 l 13.271947421953884 -20.86570575918466 a45.72897622628119,45.72897622628119 0 0,0 0.6587463014584666,0.4269913938583529 l -13.628179355669358 20.634800523622413" fill="#d2ff1c" stroke="none" /><path d="M 111.5731344415666 82.4767994020092 l 13.355892329708842 -20.222523261984502 a45.234898535052295,45.234898535052295 0 0,0 0.6442821933042702,0.43350181305583013 l -13.701070811110114 19.990271774871555" fill="#d8ff1c" stroke="none" /><path d="M 111.8722381534696 82.67804972795209 l 4.001927294318515 -5.838931521456871 a28.07873882702803,28.07873882702803 0 0,0 0.3952482395675907,0.27591396774338617 l -4.101570625059867 5.769372737908358" fill="#ff4406" stroke="none" /><path d="M 112.45986205192187 83.09580414077388 l 18.092892297462104 -24.54648324208435 a51.49397631076491,51.49397631076491 0 0,0 0.7070540075385173,0.5305865087698611 l -18.511599293911388 24.232277706050475" fill="#90ff24" stroke="none" /><path d="M 112.7482090630111 83.31218511350987 l 9.419336852536865 -12.330214304745814 a36.51638139330551,36.51638139330551 0 0,0 0.4948666191639056,0.3848112762358395 l -9.629613416335996 12.166701976889184" fill="#ffb811" stroke="none" /><path d="M 113.03279911837588 83.53348406188908 l 4.921263418025761 -6.217855563683542 a28.92972644171468,28.92972644171468 0 0,0 0.3867618291592608,0.31154795213732034 l -5.027276017540282 6.132459317752813" fill="#ff5007" stroke="none" /><path d="M 113.31354834802062 83.75963576809568 l 10.755256649050892 -13.11966433157289 a37.96470270178936,37.96470270178936 0 0,0 0.5004573382746967,0.41749931097077886 l -10.978888321487482 12.93310283669024" fill="#ffcb12" stroke="none" /><path d="M 113.59037401385872 83.9905735841838 l 1.6935110905193391 -1.9949518063587148 a23.61683253637024,23.61683253637024 0 0,0 0.30681697804409225,0.26502119808541696 l -1.7275075483262916 1.965586475808578" fill="#ff0300" stroke="none" /><path d="M 113.86319453409587 84.22622945171908 l 5.605264060948312 -6.377761557227569 a29.490867309869387,29.490867309869387 0 0,0 0.3773917826415781,0.33746605915130995 l -5.713920870413266 6.280599968192872" fill="#ff5808" stroke="none" /><path d="M 114.13192950727249 84.46653392183569 l 6.454218239027388 -7.094316457310938 a30.590946724566173,30.590946724566173 0 0,0 0.3854025605067042,0.356722856278867 l -6.575050570848057 6.982475854899696" fill="#ff6709" stroke="none" /><path d="M 114.39649973595853 84.71141617570332 l 22.276190851719555 -23.656542726972088 a53.49401010425291,53.49401010425291 0 0,0 0.6631410795969541,0.6352741533957811 l -22.679004417181822 23.270656443270727" fill="#7aff26" stroke="none" /><path d="M 114.65682725009322 84.96080404539774 l 6.562866191176499 -6.734078869102441 a30.403139415034723,30.403139415034723 0 0,0 0.3706404449363854,0.3674725969209883 l -6.677498556242847 6.620426261952793" fill="#ff6509" stroke="none" /><path d="M 114.91283532996326 85.21462403516908 l 23.05731590614424 -22.860246014200357 a53.468918439416726,53.468918439416726 0 0,0 0.6406421717879993,0.6573553057494325 l -23.44634487908305 22.461068016383184" fill="#7aff26" stroke="none" /><path d="M 115.16444852881244 85.47280134310134 l 20.918235209339663 -20.039196140923377 a49.96794687663687,49.96794687663687 0 0,0 0.5880612652732035,0.6245006850863406 l -21.259152308349126 19.677153995892542" fill="#a1ff22" stroke="none" /><path d="M 115.41159269507618 85.73525988315684 l 5.80366264628631 -5.371783501750221 a28.90813240288596,28.90813240288596 0 0,0 0.3339609231098835,0.367081555840638 l -5.895021270238072 5.271364370351911" fill="#ff5007" stroke="none" /><path d="M 115.6541949942343 86.00192230759917 l 5.8983086885954155 -5.274304000118275 a28.912542453069292,28.912542453069292 0 0,0 0.32766024841228825,0.3728172149309898 l -5.987980000966294 5.172274507375988" fill="#ff5007" stroke="none" /><path d="M 115.8921839302757 86.27271002978787 l 21.41112544549083 -18.494420204822077 a49.292752986499494,49.292752986499494 0 0,0 0.5476317738786364,0.645108852628529 l -21.72545178287658 18.124144569743997" fill="#a9ff21" stroke="none" /><path d="M 116.1254893667686 86.54754324733833 l 27.34452590161897 -22.811776048895204 a56.610394876907215,56.610394876907215 0 0,0 0.616118372060688,0.7515642344680442 l -27.73209109291828 22.339009532728664" fill="#59ff2a" stroke="none" /><path d="M 116.35404254752997 86.82634096563983 l 12.135706122285978 -9.775665810551464 a36.58329249953533,36.58329249953533 0 0,0 0.38975764808594815,0.49244605597877994 l -12.301730201013484 9.565899810658006" fill="#ffb911" stroke="none" /><path d="M 116.57777611688842 87.10902102172516 l 25.17224465649544 -19.5740896978515 a52.88709595660915,52.88709595660915 0 0,0 0.5511541130274739,0.7214784262376778 l -25.50455074687722 19.139090358372943" fill="#80ff25" stroke="none" /><path d="M 116.7966241395341 87.39550010848427 l 21.590672691437113 -16.20204329966743 a47.993765101464945,47.993765101464945 0 0,0 0.4888461632272198,0.6632137060417513 l -21.86562087424816 15.829023284356806" fill="#b8ff1f" stroke="none" /><path d="M 117.01052211995028 87.68569379921539 l 12.65500462241637 -9.161247420501592 a36.62298295118531,36.62298295118531 0 0,0 0.36428515168082254,0.5124126865184676 l -12.810404872627153 8.942657507273621" fill="#ffb911" stroke="none" /><path d="M 117.21940702142032 87.97951657250589 l 20.17680851554652 -14.084979353768933 a45.60671138671577,45.60671138671577 0 0,0 0.4426245643197169,0.6458024673378363 l -20.415622816681562 13.736542151361048" fill="#d4ff1c" stroke="none" /><path d="M 117.42321728460499 88.27688183743584 l 26.931145110445602 -18.12047632912669 a53.459794197658105,53.459794197658105 0 0,0 0.5057692670191585,0.7657991330718283 l -27.238238816385483 17.655497317715803" fill="#7aff26" stroke="none" /><path d="M 117.62189284568427 88.57770195909679 l 6.795139970450158 -4.404527632293755 a29.09776456076914,29.09776456076914 0 0,0 0.26809060265447554,0.42148295603835867 l -6.869748264730524 4.287231001576725" fill="#ff5207" stroke="none" /><path d="M 117.81537515405839 88.88188828441811 l 6.511489280107863 -4.063650898452244 a28.67546423804133,28.67546423804133 0 0,0 0.2570305239863255,0.4198400443378755 l -6.580287768549591 3.951273737989814" fill="#ff4c07" stroke="none" /><line stroke="#e1ed5e" stroke-width="0.3" x1="172.87174338648825" x2="177.1583165268699" y1="56.24261187166439" y2="53.66864786411523" /><path d="M 173.72905801456457 55.72781907015455 a86.0,86.0 0 0,1 12.242430191666344,42.057860355516425" fill="none" id="id39" stroke="none" /><text fill="#e1ed5e" style="font-size:6.75px; font-family:Arial;" text-anchor="middle"><textPath startOffset="22.145653131862474" xlink:href="#id39">March</textPath></text><path d="M 118.00360718960297 89.18935116829356 l 2.80600585743849 -1.6849258942950647 a24.273017589510502,24.273017589510502 0 0,0 0.211436811981145,0.35906593124625674 l -2.8345163795494024 1.6365087947552515" fill="#ff0c01" stroke="none" /><path d="M 118.18653347947321 89.5 l 18.156023654576014 -10.482385144382677 a41.96477028876535,41.96477028876535 0 0,0 0.3548353832298573,0.6269601224974194 l -18.333292402827247 10.16916825178614" fill="#fffe18" stroke="none" /><path d="M 118.36410011445183 89.81374322990088 l 21.14242377127775 -11.727346068376141 a45.17711167058108,45.17711167058108 0 0,0 0.3703547554779795,0.6814110361540308 l -21.34062387637107 11.362680198747507" fill="#d9ff1c" stroke="none" /><path d="M 118.53625476483649 90.13048839642627 l 4.699243337701903 -2.5020823913926473 a26.323842995454775,26.323842995454775 0 0,0 0.20895105813870168,0.4006912052106885 l -4.741502464815549 2.4210449430774608" fill="#ff2b04" stroke="none" /><path d="M 118.70294669586156 90.45014215332178 l 30.362193223523946 -15.503152199123228 a55.09120862409813,55.09120862409813 0 0,0 0.4228383708239257,0.8459599898432623 l -30.623851507559607 14.979660353116216" fill="#69ff28" stroke="none" /><path d="M 118.8641267826498 90.77261029715802 l 6.960102855569945 -3.4045350818611144 a28.748154030718283,28.748154030718283 0 0,0 0.21303852678776794,0.4451685847379185 l -7.017520640317625 3.2845539950580926" fill="#ff4d07" stroke="none" /><path d="M 119.0197475246899 91.09779779509293 l 14.428538100508993 -6.753284370636308 a36.93077403984252,36.93077403984252 0 0,0 0.2638185633763881,0.576491172647633 l -14.542341128740432 6.504604215773991" fill="#ffbd11" stroke="none" /><path d="M 119.16976305983485 91.42560881287824 l 31.46275808749502 -14.072891502409908 a55.46667117246506,55.46667117246506 0 0,0 0.3813099045052382,0.8725116834064606 l -31.69970187401723 13.530717749227597" fill="#65ff29" stroke="none" /><path d="M 119.4528033332814 92.08871423366111 l 17.2296915472854 -7.007165556608501 a39.60007096632479,39.60007096632479 0 0,0 0.25068980503327254,0.6319020713850506 l -17.347440027284797 6.710362468009885" fill="#ffe015" stroke="none" /><path d="M 119.58574465831526 92.42381321644754 l 7.831111429021925 -3.0292421321797174 a29.396583478363716,29.396583478363716 0 0,0 0.17801635329215362,0.47220952672249716 l -7.881958466128519 2.8943643252630626" fill="#ff5708" stroke="none" /><path d="M 119.71291397450082 92.76114493625339 l 8.485649534737728 -3.116048047648963 a30.039690451649964,30.039690451649964 0 0,0 0.1736005583402296,0.4855916585463387 l -8.5378902631219 2.9699214327217076" fill="#ff6008" stroke="none" /><path d="M 119.83427380445688 93.10060997987247 l 29.009063525726006 -10.090858145644114 a51.71402260784346,51.71402260784346 0 0,0 0.2844630247782011,0.8409643869897091 l -29.178011972076572 9.591392084180244" fill="#8dff24" stroke="none" /><path d="M 119.94978838288452 93.4421083053983 l 7.577944556647838 -2.4910208928746305 a28.976868357467517,28.976868357467517 0 0,0 0.15128034277409305,0.47388351907631143 l -7.619589615199188 2.360568340106932" fill="#ff5107" stroke="none" /><path d="M 120.05942366710727 93.78553927170692 l 14.129686799154614 -4.377413088912047 a35.79222073906358,35.79222073906358 0 0,0 0.17678575477610303,0.5884622811989951 l -14.202748873934345 4.134213204122329" fill="#ffae10" stroke="none" /><path d="M 120.16314734710363 94.1308016681162 l 24.329902208369866 -7.08207994506238 a46.33969214132436,46.33969214132436 0 0,0 0.21576976068468268,0.7656907610387318 l -24.44789046112913 6.663381260120635" fill="#cbff1d" stroke="none" /><path d="M 120.26092885502905 94.47779374421319 l 9.190461909759462 -2.504901261673737 a30.52570839599209,30.52570839599209 0 0,0 0.133456244601878,0.5067550983177995 l -9.23210763516607 2.346765658983139" fill="#ff6709" stroke="none" /><path d="M 120.35273937422433 94.82641323984039 l 15.772401511572996 -4.009282786745525 a37.273997600662355,37.273997600662355 0 0,0 0.15231304432088874,0.6214891977830366 l -15.838902082410176 3.737937764354394" fill="#ffc212" stroke="none" /><path d="M 120.43855184770803 95.1765574152323 l 29.924685050237958 -7.062144191163206 a51.7467178074785,51.7467178074785 0 0,0 0.19661076338463196,0.8663033005931156 l -30.04150667518026 6.547406556631064" fill="#8dff24" stroke="none" /><path d="M 120.51834098615036 95.52812308129327 l 14.818606464489564 -3.2296463081824536 a36.16646672186269,36.16646672186269 0 0,0 0.12699990702211966,0.6077405295847254 l -14.87186408233605 2.974789327312324" fill="#ffb310" stroke="none" /><path d="M 120.592083275326 95.88100663000786 l 30.750266447444794 -6.150914500927859 a52.35941064156936,52.35941064156936 0 0,0 0.16873121200171848,0.8828730002165279 l -30.851323951728666 5.622138935678017" fill="#86ff25" stroke="none" /><path d="M 120.65975698304385 96.23510406497455 l 54.530944852898614 -9.937354673545984 a76.42900833009477,76.42900833009477 0 0,0 0.22413782985221095,1.2927674402771296 l -54.693497500243055 8.999794200348262" fill="#43ffe2" stroke="none" /><path d="M 120.7213421655516 96.59031103205396 l 33.29776800720569 -5.479135054298912 a54.74555193214267,54.74555193214267 0 0,0 0.1446286444410661,0.9286196469007256 l -33.38691814378502 4.906727225466746" fill="#6cff28" stroke="none" /><path d="M 120.77682067341334 96.94652285012252 l 41.841862115846034 -6.1493128273735325 a63.291316763259715,63.291316763259715 0 0,0 0.14875112079561256,1.0762890097891409 l -41.94125775319686 5.430135509384306" fill="#33ff4f" stroke="none" /><path d="M 120.82617615685814 97.30363454192243 l 8.083671721732973 -1.046593145124318 a29.151141375057026,29.151141375057026 0 0,0 0.059992929208550684,0.49682751538249637 l -8.100446737201187 0.9076719528184086" fill="#ff5307" stroke="none" /><line stroke="#e1ed5e" stroke-width="0.3" x1="184.99686870605535" x2="189.99668451229388" y1="99.2704041080226" y2="99.22748670261217" /><path d="M 185.99683186730306 99.26182062694052 a86.0,86.0 0 0,1 -10.086455211305974,41.156179273409016" fill="none" id="id40" stroke="none" /><text fill="#e1ed5e" style="font-size:6.75px; font-family:Arial;" text-anchor="middle"><textPath startOffset="21.40746469413373" xlink:href="#id40">April</textPath></text><line stroke="#e1ed5e" stroke-width="0.3" x1="174.33088141563837" x2="178.70328620479359" y1="141.23008692659167" y2="143.65538615756765" /><path d="M 175.20536237346943 141.71514677278685 a86.0,86.0 0 0,1 -30.301960400862466,31.631185727798858" fill="none" id="id41" stroke="none" /><text fill="#e1ed5e" style="font-size:6.75px; font-family:Arial;" text-anchor="middle"><textPath startOffset="22.145653131862474" xlink:href="#id41">May</textPath></text><line stroke="#e1ed5e" stroke-width="0.3" x1="143.1302829299769" x2="145.66735839644613" y1="173.24464959558577" y2="177.55315839532614" /><path d="M 143.63769802327073 174.10635135553383 a86.0,86.0 0 0,1 -40.68552437913181,11.842963189579606" fill="none" id="id42" stroke="none" /><text fill="#e1ed5e" style="font-size:6.75px; font-family:Arial;" text-anchor="middle"><textPath startOffset="21.407464694133747" xlink:href="#id42">June</textPath></text><line stroke="#e1ed5e" stroke-width="0.3" x1="101.45913802915013" x2="101.54496967792366" y1="184.9874750549273" y2="189.98673829345242" /><path d="M 101.47630435890484 185.9873277026323 a86.0,86.0 0 0,1 -42.54439059252881,-10.42667462771756" fill="none" id="id43" stroke="none" /><text fill="#e1ed5e" style="font-size:6.75px; font-family:Arial;" text-anchor="middle"><textPath startOffset="22.145653131862474" xlink:href="#id43">July</textPath></text><line stroke="#e1ed5e" stroke-width="0.3" x1="58.13341422392154" x2="55.67067388415222" y1="173.97424548756322" y2="178.32567169271397" /><path d="M 57.64086615596768 174.84453072859336 a86.0,86.0 0 0,1 -31.369924170532247,-30.572349798747897" fill="none" id="id44" stroke="none" /><text fill="#e1ed5e" style="font-size:6.75px; font-family:Arial;" text-anchor="middle"><textPath startOffset="22.145653131862474" xlink:href="#id44">August</textPath></text><line stroke="#e1ed5e" stroke-width="0.3" x1="26.387840678322732" x2="22.057713659400548" y1="142.50000000000003" y2="145.00000000000006" /><path d="M 25.521815274538298 143.00000000000003 a86.0,86.0 0 0,1 -11.493303480769221,-40.785679425670985" fill="none" id="id45" stroke="none" /><text fill="#e1ed5e" style="font-size:6.75px; font-family:Arial;" text-anchor="middle"><textPath startOffset="21.40746469413373" xlink:href="#id45">September</textPath></text><line stroke="#e1ed5e" stroke-width="0.3" x1="15.003131293944662" x2="10.003315487706104" y1="100.72959589197737" y2="100.7725132973878" /><path d="M 14.003168132696942 100.73817937305945 a86.0,86.0 0 0,1 10.791469493833604,-42.45332614584628" fill="none" id="id46" stroke="none" /><text fill="#e1ed5e" style="font-size:6.75px; font-family:Arial;" text-anchor="middle"><textPath startOffset="22.145653131862435" xlink:href="#id46">October</textPath></text><line stroke="#e1ed5e" stroke-width="0.3" x1="26.387840678322718" x2="22.05771365940052" y1="57.49999999999999" y2="54.99999999999999" /><path d="M 25.521815274538284 56.99999999999999 a86.0,86.0 0 0,1 29.574782752854787,-30.34633250058573" fill="none" id="id47" stroke="none" /><text fill="#e1ed5e" style="font-size:6.75px; font-family:Arial;" text-anchor="middle"><textPath startOffset="21.40746469413373" xlink:href="#id47">November</textPath></text><line stroke="#e1ed5e" stroke-width="0.3" x1="56.869717070023135" x2="54.33264160355391" y1="26.7553504044142" y2="22.446841604673864" /><path d="M 56.362301976729285 25.89364864446614 a86.0,86.0 0 0,1 42.16139366436587,-11.88097634709845" fill="none" id="id48" stroke="none" /><text fill="#e1ed5e" style="font-size:6.75px; font-family:Arial;" text-anchor="middle"><textPath startOffset="22.145653131862474" xlink:href="#id48">December</textPath></text></svg>