<?xml version="1.0" encoding="utf-8" ?>
<svg baseProfile="full" height="200mm" version="1.1" viewBox="0,0,200,200" width="200mm" xmlns="http://www.w3.org/2000/svg" xmlns:ev="http://www.w3.org/2001/xml-events" xmlns:xlink="http://www.w3.org/1999/xlink"><defs /><rect fill="#1a1a1a" height="200" width="200" x="0" y="0" /><text alignment-baseline="middle" fill="#e1ed5e" style="dominant-baseline: central; font-size:9.0px; font-family:Arial;" text-anchor="middle" x="100.0" y="100.0">2021</text><line stroke="#e1ed5e" stroke-width="0.3" x1="100.0" x2="100.0" y1="15.0" y2="10.0" /><path d="M 100.0 14.0 a86.0,86.0 0 0,1 42.46469731375804,11.215312516191453" fill="none" id="id1" stroke="none" /><text fill="#e1ed5e" style="font-size:6.75px; font-family:Arial;" text-anchor="middle"><textPath startOffset="22.20632615414155" xlink:href="#id1">January</textPath></text><line stroke="#e1ed5e" stroke-width="0.3" x1="143.23703022742887" x2="145.7803849466894" y1="26.81831364943548" y2="22.513508569990506" /><path d="M 143.74570117128098 25.957352633546492 a86.0,86.0 0 0,1 28.547481713284135,27.462654790039103" fill="none" id="id2" stroke="none" /><text fill="#e1ed5e" style="font-size:6.75px; font-family:Arial;" text-anchor="middle"><textPath startOffset="19.985693538727396" xlink:href="#id2">February</textPath></text><line stroke="#e1ed5e" stroke-width="0.3" x1="172.23445277983987" x2="176.4835382374775" y1="55.19839476539836" y2="52.563006222186495" /><path d="M 173.08426987136738 54.67131705675599 a86.0,86.0 0 0,1 12.851231095245387,41.99856678651699" fill="none" id="id3" stroke="none" /><text fill="#e1ed5e" style="font-size:6.75px; font-family:Arial;" text-anchor="middle"><textPath startOffset="22.20632615414155" xlink:href="#id3">March</textPath></text><line stroke="#e1ed5e" stroke-width="0.3" x1="184.98032266829074" x2="189.97916517819016" y1="98.17113171792111" y2="98.06355123074" /><path d="M 185.9800911702706 98.14961562048488 a86.0,86.0 0 0,1 -9.607161424134198,41.387399972396054" fill="none" id="id4" stroke="none" /><text fill="#e1ed5e" style="font-size:6.75px; font-family:Arial;" text-anchor="middle"><textPath startOffset="21.466115282336823" xlink:href="#id4">April</textPath></text><line stroke="#e1ed5e" stroke-width="0.3" x1="174.80103733775053" x2="179.2010983576182" y1="140.37084112569926" y2="142.7455964860345" /><path d="M 175.68104954172406 140.8457921977663 a86.0,86.0 0 0,1 -30.038265399797805,32.042727171017184" fill="none" id="id5" stroke="none" /><text fill="#e1ed5e" style="font-size:6.75px; font-family:Arial;" text-anchor="middle"><textPath startOffset="22.206326154141568" xlink:href="#id5">May</textPath></text><line stroke="#e1ed5e" stroke-width="0.3" x1="143.8653032363475" x2="146.44561519142675" y1="172.8068346515853" y2="177.08958963109032" /><path d="M 144.38136562736335 173.6633856474863 a86.0,86.0 0 0,1 -40.68145358897372,12.25698825130547" fill="none" id="id6" stroke="none" /><text fill="#e1ed5e" style="font-size:6.75px; font-family:Arial;" text-anchor="middle"><textPath startOffset="21.466115282336833" xlink:href="#id6">June</textPath></text><line stroke="#e1ed5e" stroke-width="0.3" x1="102.19456741930631" x2="102.32365962044197" y1="184.97166512339345" y2="189.96999836594603" /><path d="M 102.22038585953345 185.97133177190398 a86.0,86.0 0 0,1 -42.740103519485714,-10.115201625700543" fill="none" id="id7" stroke="none" /><text fill="#e1ed5e" style="font-size:6.75px; font-family:Arial;" text-anchor="middle"><textPath startOffset="22.20632615414155" xlink:href="#id7">July</textPath></text><line stroke="#e1ed5e" stroke-width="0.3" x1="58.666819895761336" x2="56.23545636021788" y1="174.27360380694188" y2="178.64263932499728" /><path d="M 58.180547188652646 175.14741091055294 a86.0,86.0 0 0,1 -31.652253787137756,-30.449443065178592" fill="none" id="id8" stroke="none" /><text fill="#e1ed5e" style="font-size:6.75px; font-family:Arial;" text-anchor="middle"><textPath startOffset="22.20632615414155" xlink:href="#id8">August</textPath></text><line stroke="#e1ed5e" stroke-width="0.3" x1="26.63291911575756" x2="22.317208475507996" y1="142.92168965132927" y2="145.44649492493687" /><path d="M 25.769776987707644 143.4266507060508 a86.0,86.0 0 0,1 -11.730757126820373,-40.83630448921669" fill="none" id="id9" stroke="none" /><text fill="#e1ed5e" style="font-size:6.75px; font-family:Arial;" text-anchor="middle"><textPath startOffset="21.46611528233685" xlink:href="#id9">September</textPath></text><line stroke="#e1ed5e" stroke-width="0.3" x1="15.007084014347285" x2="10.007500721073583" y1="101.09737516637583" y2="101.16192664675087" /><path d="M 14.007167355692545 101.11028546245083 a86.0,86.0 0 0,1 10.666146001902534,-42.60595125391555" fill="none" id="id10" stroke="none" /><text fill="#e1ed5e" style="font-size:6.75px; font-family:Arial;" text-anchor="middle"><textPath startOffset="22.20632615414155" xlink:href="#id10">October</textPath></text><line stroke="#e1ed5e" stroke-width="0.3" x1="26.266209847984243" x2="21.928928074336255" y1="57.711370442889674" y2="55.22380399835377" /><path d="M 25.398753493254645 57.213857153982495 a86.0,86.0 0 0,1 29.58750427330803,-30.492523968695096" fill="none" id="id11" stroke="none" /><text fill="#e1ed5e" style="font-size:6.75px; font-family:Arial;" text-anchor="middle"><textPath startOffset="21.46611528233685" xlink:href="#id11">November</textPath></text><path d="M 84.07557802195018 86.31012108654704 l -18.48532803791114 -15.891434104376316 a45.377141558495296,45.377141558495296 0 0,0 0.514291852309612,-0.5879244915258813 l 18.209044322023686 16.20727415210514" fill="#ffbf11" stroke="none" /><path d="M 85.05521093208273 85.24692304244772 l -25.723928868260575 -25.393941695621255 a57.14654604882659,57.14654604882659 0 0,0 0.6970904400856882,-0.6940969122013481 l 25.283002628007573 25.832974458472712" fill="#92ff23" stroke="none" /><path d="M 85.31137513191541 84.99185889309783 l -10.302672086306028 -10.52678231203179 a35.729500940726226,35.729500940726226 0 0,0 0.443244461544034,-0.4264008208232295 l 10.119944381149567 10.702566219617333" fill="#ff1c02" stroke="none" /><path d="M 88.70189139769569 82.29822771554957 l -22.018584079418915 -34.498514319503336 a61.92634280161638,61.92634280161638 0 0,0 0.9034783522879201,-0.5657580613174347 l 21.421486574758752 34.8724167221437" fill="#53ff2b" stroke="none" /><path d="M 89.00827224532344 82.1063720568725 l -7.472660892909323 -12.16487678254118 a35.27672539326949,35.27672539326949 0 0,0 0.5201434457799691,-0.31338060615769747 l 7.262155380911705 12.291703998157496" fill="#ff1302" stroke="none" /><line stroke="#e1ed5e" stroke-width="0.3" x1="56.762969772571076" x2="54.21961505331055" y1="26.818313649435495" y2="22.513508569990535" /><path d="M 56.25429882871897 25.957352633546506 a86.0,86.0 0 0,1 42.265352541879196,-11.944610805530505" fill="none" id="id12" stroke="none" /><text fill="#e1ed5e" style="font-size:6.75px; font-family:Arial;" text-anchor="middle"><textPath startOffset="22.20632615414155" xlink:href="#id12">December</textPath></text><path d="M 89.63071344664047 81.73862282372117 l -7.988716975563731 -14.068949979788703 a37.178842741353805,37.178842741353805 0 0,0 0.559233372293919,-0.31121276621244265 l 7.745359514197767 14.20437814356133" fill="#ff3505" stroke="none" /><path d="M 90.91171255644093 81.06846463323043 l -21.014963098101976 -43.77563095289539 a69.55856813517755,69.55856813517755 0 0,0 1.0838609087919455,-0.5088872296659152 l 20.25832397801042 44.13088316520131" fill="#37ff75" stroke="none" /><path d="M 91.56875222667455 80.76684994638697 l -10.066893383387857 -22.964343620523916 a46.07395900758386,46.07395900758386 0 0,0 0.7291011867201737,-0.31216307791534625 l 9.670108438877374 23.13422622640205" fill="#ffca12" stroke="none" /><path d="M 91.90106846888425 80.62456947434976 l -24.29679459334727 -58.12629157695071 a84.0,84.0 0 0,0 1.338864521646478,-0.5461564552656921 l 23.29264620211241 58.53590891839998" fill="#4dd2ff" stroke="none" /><path d="M 92.23578459929587 80.48803036053334 l -4.881165683765374 -12.266681398122866 a34.202168418688736,34.202168418688736 0 0,0 0.5488907881245001,-0.212961098262272 l 4.669291730641198 12.348885200275689" fill="#ff0000" stroke="none" /><path d="M 92.57280143429618 80.3572730644239 l -5.086672277687612 -13.452732369747075 a35.38228921530354,35.38228921530354 0 0,0 0.5715379931646459,-0.21050226629007743 l 4.854351958750397 13.538297903843475" fill="#ff1502" stroke="none" /><path d="M 92.91201910852362 80.23233633223022 l -16.37285656008834 -45.662245245281625 a69.50887622670177,69.50887622670177 0 0,0 1.129744301595762,-0.3941456037159103 l 15.584430254429293 45.937311702169744" fill="#37ff74" stroke="none" /><path d="M 97.47563105711357 79.15227682838746 l -3.123677492020008 -25.797165590449886 a46.98559434716174,46.98559434716174 0 0,0 0.803751902137432,-0.09031089125906766 l 2.679158886372858 25.84711243517955" fill="#ffd814" stroke="none" /><path d="M 98.91598698831166 79.02799685794201 l -2.839821165019156 -54.940981107694995 a76.01432531009891,76.01432531009891 0 0,0 1.3072985931182122,-0.056295027395317096 l 1.8936817395116194 54.981723861614505" fill="#41ffcc" stroke="none" /></svg>