<?xml version="1.0" encoding="utf-8" ?>
<svg baseProfile="full" height="200mm" version="1.1" viewBox="0,0,200,200" width="200mm" xmlns="http://www.w3.org/2000/svg" xmlns:ev="http://www.w3.org/2001/xml-events" xmlns:xlink="http://www.w3.org/1999/xlink"><defs /><rect fill="#1a1a1a" height="200" width="200" x="0" y="0" /><text alignment-baseline="middle" fill="#e1ed5e" style="dominant-baseline: central; font-size:9.0px; font-family:Arial;" text-anchor="middle" x="100.0" y="100.0">2023</text><line stroke="#e1ed5e" stroke-width="0.3" x1="100.0" x2="100.0" y1="15.0" y2="10.0" /><path d="M 100.0 14.0 a86.0,86.0 0 0,1 42.46469731375804,11.215312516191453" fill="none" id="id25" stroke="none" /><text fill="#e1ed5e" style="font-size:6.75px; font-family:Arial;" text-anchor="middle"><textPath startOffset="22.20632615414155" xlink:href="#id25">January</textPath></text><path d="M 100.0 79.0 l 0.0 -13.550297475110128 a34.55029747511013,34.55029747511013 0 0,0 0.5947265757291065,0.005118999399181343 l -0.2332460964565781 13.548289852319506" fill="#ffaf10" stroke="none" /><path d="M 101.44485096284872 79.0497635885617 l 0.9302765803629438 -13.48894438787089 a34.520984994261525,34.520984994261525 0 0,0 0.5924619840384409,0.045986452581448414 l -1.162328753763726 13.470932673100975" fill="#ffaf10" stroke="none" /><path d="M 102.52436894288641 79.15227682838746 l 1.6099754643144446 -13.296124121515254 a34.39324223817498,34.39324223817498 0 0,0 0.5871176562498843,0.07622472217079541 l -1.8386078490721751 13.266441076180321" fill="#ffad10" stroke="none" /><path d="M 107.08798089147638 80.2323363322302 l 6.854596550742463 -19.116778285375467 a41.30853775843188,41.30853775843188 0 0,0 0.66726600495957,0.24575970091607277 l -7.1826448814746096 18.99595531665307" fill="#faff18" stroke="none" /><path d="M 109.41281617654863 81.2277094730956 l 7.2754511216349576 -14.509672727902164 a37.23153694799501,37.23153694799501 0 0,0 0.5704217401890069,0.2921921706253994 l -7.52413334941272 14.382288031964263" fill="#ffd113" stroke="none" /><line stroke="#e1ed5e" stroke-width="0.3" x1="143.23703022742887" x2="145.7803849466894" y1="26.81831364943548" y2="22.513508569990506" /><path d="M 143.74570117128098 25.957352633546492 a86.0,86.0 0 0,1 28.547481713284135,27.462654790039103" fill="none" id="id26" stroke="none" /><text fill="#e1ed5e" style="font-size:6.75px; font-family:Arial;" text-anchor="middle"><textPath startOffset="19.985693538727396" xlink:href="#id26">February</textPath></text><path d="M 110.68208982089419 81.91981866633111 l 9.132930813418268 -15.458121770467548 a38.95449676023496,38.95449676023496 0 0,0 0.5743709470652804,0.34605206892644025 l -9.397663826701185 15.298623092082494" fill="#ffe715" stroke="none" /><path d="M 111.2981086023043 82.29822771554956 l 8.750028368532826 -13.709463691175605 a37.26383691352663,37.26383691352663 0 0,0 0.5377224443140717,0.3497496355047615 l -8.984717838631177 13.556815131511316" fill="#ffd213" stroke="none" /><path d="M 111.90073688211348 82.69761687909136 l 8.436942391230376 -12.266400901737972 a35.88779997162436,35.88779997162436 0 0,0 0.5059647638308908,0.3544606511414712 l -8.646838294644919 12.119355407832566" fill="#ffc011" stroke="none" /><path d="M 112.48926042617603 83.11751280151076 l 9.650420497891014 -13.045055908532063 a37.22664781903035,37.22664781903035 0 0,0 0.5118732257346247,0.385532301378449 l -9.873539877384022 12.877007017647767" fill="#ffd113" stroke="none" /><path d="M 112.77801427241765 83.33499621200491 l 9.874417067000735 -12.878151042687467 a37.22808943441426,37.22808943441426 0 0,0 0.505180643924821,0.39430150562591865 l -10.094630266084986 12.706271147838324" fill="#ffd113" stroke="none" /><path d="M 113.89432698308785 84.25364557470407 l 10.761775975891311 -12.196253835704645 a37.2654366612216,37.2654366612216 0 0,0 0.4773330002050564,0.4285542805871419 l -10.970119963692358 12.009200546348206" fill="#ffd213" stroke="none" /><path d="M 115.4437574822437 85.77008943001954 l 11.927073904754426 -10.989630938023888 a37.21810963347596,37.21810963347596 0 0,0 0.43005766603869183,0.47488041616124904 l -12.114475211409152 10.78269773459309" fill="#ffd113" stroke="none" /><line stroke="#e1ed5e" stroke-width="0.3" x1="172.23445277983987" x2="176.4835382374775" y1="55.19839476539836" y2="52.563006222186495" /><path d="M 173.08426987136738 54.67131705675599 a86.0,86.0 0 0,1 12.851231095245387,41.99856678651699" fill="none" id="id27" stroke="none" /><text fill="#e1ed5e" style="font-size:6.75px; font-family:Arial;" text-anchor="middle"><textPath startOffset="22.20632615414155" xlink:href="#id27">March</textPath></text><path d="M 118.3937258080291 89.86733742301442 l 2.3847109083086364 -1.3136800683959613 a23.722609306952986,23.722609306952986 0 0,0 0.19395142301945215,0.35936253073886415 l -2.4069704305465534 1.2724365543246385" fill="#ff1c02" stroke="none" /><path d="M 119.61058180528143 92.48833698450437 l 6.344519507587582 -2.430213086457293 a27.794031456193565,27.794031456193565 0 0,0 0.16728752586211226,0.4482473991853176 l -6.385411621951319 2.320642550242642" fill="#ff5507" stroke="none" /><line stroke="#e1ed5e" stroke-width="0.3" x1="184.98032266829074" x2="189.97916517819016" y1="98.17113171792111" y2="98.06355123074" /><path d="M 185.9800911702706 98.14961562048488 a86.0,86.0 0 0,1 -9.607161424134198,41.387399972396054" fill="none" id="id28" stroke="none" /><text fill="#e1ed5e" style="font-size:6.75px; font-family:Arial;" text-anchor="middle"><textPath startOffset="21.466115282336823" xlink:href="#id28">April</textPath></text><path d="M 120.99980553446 99.90962569577887 l 6.802667407062705 -0.029275810804638484 a27.802730402140856,27.802730402140856 0 0,0 -0.0020596563355155958,0.478591596211056 l -6.802163453437686 -0.08782526361010227" fill="#ff5507" stroke="none" /><path d="M 120.9764740272857 100.99374915477107 l 13.518400287027433 0.6404269297888635 a34.53356172530728,34.53356172530728 0 0,0 -0.03324044282472427,0.5935304363018987 l -13.50537349331518 -0.8730290824261856" fill="#ffaf10" stroke="none" /><path d="M 120.8583938346157 102.4346265915055 l 6.922253721937466 0.8079770244153816 a27.9692484144892,27.9692484144892 0 0,0 -0.059932093626285717,0.47771775391441457 l -6.907320119064332 -0.9270125326171911" fill="#ff5708" stroke="none" /><path d="M 120.49622156327973 104.57218783832717 l 6.639700329171589 1.481148952329995 a27.802898108908405,27.802898108908405 0 0,0 -0.10821872175774648,0.4662034209852839 l -6.61322104148329 -1.5952210306638437" fill="#ff5507" stroke="none" /><path d="M 119.79798401119884 107.00284435728193 l 6.415544680071064 2.2692745299881283 a27.80505844460141,27.80505844460141 0 0,0 -0.16348810186857238,0.4498490409965051 l -6.375532317197265 -2.3793713679907644" fill="#ff5507" stroke="none" /><path d="M 118.81262510543309 109.33194174019688 l 12.143985300814288 6.023984568122677 a34.55598646588929,34.55598646588929 0 0,0 -0.2689135845287291,0.530592014113557 l -12.038493046499289 -6.2321307939389285" fill="#ffaf10" stroke="none" /><line stroke="#e1ed5e" stroke-width="0.3" x1="174.80103733775053" x2="179.2010983576182" y1="140.37084112569926" y2="142.7455964860345" /><path d="M 175.68104954172406 140.8457921977663 a86.0,86.0 0 0,1 -30.038265399797805,32.042727171017184" fill="none" id="id29" stroke="none" /><text fill="#e1ed5e" style="font-size:6.75px; font-family:Arial;" text-anchor="middle"><textPath startOffset="22.206326154141568" xlink:href="#id29">May</textPath></text><path d="M 118.48025628344425 109.97397251340804 l 5.958674012581745 3.2159538215436814 a27.77112656583219,27.77112656583219 0 0,0 -0.23066379091376282,0.41872178133563764 l -5.902433812216472 -3.3180461212771237" fill="#ff5507" stroke="none" /><path d="M 118.30583269289576 110.29060199501025 l 5.905061060530966 3.319523025780737 a27.774140480333102,27.774140480333102 0 0,0 -0.23786303447482374,0.4147342501416983 l -5.847046029903763 -3.4206771217807503" fill="#ff5507" stroke="none" /><path d="M 117.35343817320211 111.8261652097733 l 8.008240973267752 5.457522586837589 a30.69105135017697,30.69105135017697 0 0,0 -0.30126788016979883,0.4339988510048534 l -7.913112185935817 -5.594562700029462" fill="#ff7c0b" stroke="none" /><path d="M 116.93607887273984 112.41649034213515 l 5.464712105117033 4.006390474772143 a27.776004945995656,27.776004945995656 0 0,0 -0.2860118155139504,0.38315956626383363 l -5.39493902290799 -4.0998629205452914" fill="#ff5507" stroke="none" /><path d="M 116.27256486870786 113.27417163493432 l 5.24976464172928 4.2824396436317596 a27.774903548752548,27.774903548752548 0 0,0 -0.30539696818942763,0.36787032175410994 l -5.175271673646309 -4.37217122249964" fill="#ff5507" stroke="none" /><path d="M 115.80600337817218 113.82643327865902 l 10.196694022046277 8.919643137203208 a34.54742051736383,34.54742051736383 0 0,0 -0.3953888947059916,0.44422361469107585 l -10.041646277691946 -9.093840921635149" fill="#ffaf10" stroke="none" /><path d="M 115.32070863581623 114.36230785411682 l 4.950578059056309 4.640890172258979 a27.785726542514052,27.785726542514052 0 0,0 -0.3301122255968034,0.34612134876696266 l -4.869959282080541 -4.725418637608449" fill="#ff5507" stroke="none" /><path d="M 115.07121518719521 114.62390073753431 l 9.719373701233561 9.43090218488831 a34.54282618825043,34.54282618825043 0 0,0 -0.41773688321825503,0.4231652572238603 l -9.55559619295977 -9.596807936092835" fill="#ffaf10" stroke="none" /><path d="M 114.81725581225074 114.88116024355365 l 9.55929361873777 9.600521308271075 a34.5480664258708,34.5480664258708 0 0,0 -0.4250235526879974,0.4159750019050275 l -9.39262011367398 -9.763646413098673" fill="#ffaf10" stroke="none" /><path d="M 114.29624159901734 115.38237550388516 l 9.227546643739641 9.928594621916211 a34.55450508977492,34.55450508977492 0 0,0 -0.4391720464957366,0.40117325180513624 l -9.055275047777041 -10.08596064030793" fill="#ffaf10" stroke="none" /><path d="M 113.75828350139079 115.86535959552629 l 4.445376232321218 5.126183978986366 a27.785214221622105,27.785214221622105 0 0,0 -0.3640319844319356,0.31023595463813775 l -4.356478771312235 -5.20194432384745" fill="#ff5507" stroke="none" /><path d="M 113.20401910651253 116.32954008644616 l 8.50624561653218 10.519757481402683 a34.528544339887446,34.528544339887446 0 0,0 -0.4653831315610409,0.3697285057529024 l -8.323904992253787 -10.664619901160712" fill="#ffaf10" stroke="none" /><path d="M 112.63410532772338 116.77436683061366 l 4.073175898568707 5.4079766565091525 a27.77030083659721,27.77030083659721 0 0,0 -0.384307942814908,0.28430182858914615 l -3.9794829853352347 -5.477288433838067" fill="#ff5507" stroke="none" /><path d="M 112.34349029814194 116.9893568818739 l 7.948856197516744 10.940661958687283 a34.52340189978348,34.52340189978348 0 0,0 -0.4837758918474371,0.34516125378655826 l -7.759352977820423 -11.075867474318061" fill="#ffaf10" stroke="none" /><line stroke="#e1ed5e" stroke-width="0.3" x1="143.8653032363475" x2="146.44561519142675" y1="172.8068346515853" y2="177.08958963109032" /><path d="M 144.38136562736335 173.6633856474863 a86.0,86.0 0 0,1 -40.68145358897372,12.25698825130547" fill="none" id="id30" stroke="none" /><text fill="#e1ed5e" style="font-size:6.75px; font-family:Arial;" text-anchor="middle"><textPath startOffset="21.466115282336833" xlink:href="#id30">June</textPath></text><path d="M 110.8373102113329 117.98757091392108 l 6.988486382934256 11.599362936252133 a34.541940867222735,34.541940867222735 0 0,0 -0.5119315140436889,0.30245816201951414 l -6.787786997862185 -11.717939670565398" fill="#ffaf10" stroke="none" /><path d="M 109.57404056367764 118.69057910512821 l 6.172456172709837 12.049957340545753 a34.538858412473196,34.538858412473196 0 0,0 -0.5314808156709109,0.26649551433814034 l -5.964121449356165 -12.154420695793196" fill="#ffaf10" stroke="none" /><path d="M 108.92500713936063 119.00905698771935 l 5.759175813957934 12.266264837706789 a34.55099107537305,34.55099107537305 0 0,0 -0.540528873629253,0.2481302946161076 l -5.547178944561262 -12.363582202656971" fill="#ffaf10" stroke="none" /><path d="M 107.93186726928326 119.44442032107085 l 5.1291323268469595 12.573710761881731 a34.5796244701305,34.5796244701305 0 0,0 -0.5530746218049419,0.22007980617552658 l -4.911936629000151 -12.660137412463326" fill="#ffb010" stroke="none" /><path d="M 107.59598834532513 119.57807347666477 l 4.947586989236716 12.75202346342213 a34.67818406908362,34.67818406908362 0 0,0 -0.5583679392244667,0.2111269769693665 l -4.727348829251974 -12.835298690498128" fill="#ffb110" stroke="none" /><path d="M 107.2578585660854 119.70592522655815 l 4.728888114707731 12.839478028496695 a34.682637861380144,34.682637861380144 0 0,0 -0.5619915833328681,0.20151018708036048 l -4.507176970745128 -12.918975756617014" fill="#ffb110" stroke="none" /><path d="M 106.91757812671514 119.82793768551818 l 2.2569040245082634 6.468991248154475 a27.851384060504913,27.851384060504913 0 0,0 -0.4540177020714527,0.15402745502572696 l -2.145216589499584 -6.506881690078324" fill="#ff5607" stroke="none" /><path d="M 106.57524785965236 119.94407469862006 l 6.0040986702217 18.211662120234962 a40.17586603059583,40.17586603059583 0 0,0 -0.6586520531819101,0.21087958788255104 l -5.68972527194885 -18.312314554777217" fill="#fff617" stroke="none" /><path d="M 105.53697534728816 120.25689768951611 l 7.99428317193315 29.246902172714776 a51.31979304239067,51.31979304239067 0 0,0 -0.854131340059598,0.2255838499886858 l -7.4896613890620545 -29.380177372007044" fill="#88ff25" stroke="none" /><path d="M 104.48393922423573 120.51570834832081 l 2.9280164434842355 13.396776448023541 a34.71301934264049,34.71301934264049 0 0,0 -0.5848458401425413,0.1225601321514612 l -2.6969791419123164 -13.445192560901543" fill="#ffb110" stroke="none" /><path d="M 103.7750983002368 120.6578951692458 l 3.849985577868325 21.067689407113726 a42.41658063053965,42.41658063053965 0 0,0 -0.7193670865812105,0.12507118890101768 l -3.4867695198150646 -21.13083917453575" fill="#edff1a" stroke="none" /><path d="M 103.41894727170886 120.7198165907248 l 5.430842640182741 32.91248869756075 a54.35754733264259,54.35754733264259 0 0,0 -0.9245031642582116,0.1443883808892676 l -4.863503612316012 -33.00109538579712" fill="#68ff28" stroke="none" /><path d="M 102.70371172650421 120.8252237178851 l 2.321706532343914 17.88284507899514 a39.03292736473114,39.03292736473114 0 0,0 -0.667040344249017,0.08076929623505585 l -2.0135387650435166 -17.920159903955547" fill="#ffe815" stroke="none" /><path d="M 102.34483914955558 120.86867818915974 l 1.9829253683958177 17.64770576865206 a38.758758737973295,38.758758737973295 0 0,0 -0.663637439914427,0.06878873409691225 l -1.678855331875788 -17.67922387120473" fill="#ffe415" stroke="none" /><path d="M 101.98527174616119 120.90594882070398 l 1.5457819846347471 16.27789199197942 a37.3511225806233,37.3511225806233 0 0,0 -0.6405818588639853,0.05527209821067467 l -1.2653558080292202 -16.30208834246876" fill="#ffd313" stroke="none" /><path d="M 101.62511606390274 120.93702456842531 l 0.6335045070828363 8.161693631375847 a29.186242782432934,29.186242782432934 0 0,0 -0.5012212390615468,0.03456715120708242 l -0.49292050724235914 -8.171389127099214" fill="#ff6809" stroke="none" /><path d="M 101.26447882468166 120.96189622390904 l 0.9860801247698197 16.346742104667513 a37.37645662067884,37.37645662067884 0 0,0 -0.6425403238329074,0.033211995385049785 l -0.7045517325234326 -16.361293906814765" fill="#ffd313" stroke="none" /><path d="M 100.90346689309514 120.98055641714683 l 1.251846426558087 29.070721659791626 a50.09766274628882,50.09766274628882 0 0,0 -0.8618698085190999,0.029684538853983037 l -0.7512562663643348 -29.087962997071703" fill="#95ff23" stroke="none" /><line stroke="#e1ed5e" stroke-width="0.3" x1="102.19456741930631" x2="102.32365962044197" y1="184.97166512339345" y2="189.96999836594603" /><path d="M 102.22038585953345 185.97133177190398 a86.0,86.0 0 0,1 -42.740103519485714,-10.115201625700543" fill="none" id="id31" stroke="none" /><text fill="#e1ed5e" style="font-size:6.75px; font-family:Arial;" text-anchor="middle"><textPath startOffset="22.20632615414155" xlink:href="#id31">July</textPath></text><path d="M 100.18074693466247 120.99922214144158 l 0.1870756744006594 21.734496639379508 a42.735301734163976,42.735301734163976 0 0,0 -0.7356452181262148,0.0 l 0.18707567440064443 -21.734496639379508" fill="#e9ff1a" stroke="none" /><path d="M 99.81925306533755 120.99922214144158 l -0.0976359031267835 11.343362600137974 a32.34378278387718,32.34378278387718 0 0,0 -0.556683184735655,-0.00958380586907621 l 0.29287877775510646 -11.340001316989738" fill="#ff920d" stroke="none" /><path d="M 99.09653310690486 120.98055641714683 l -0.43520501415739243 10.106450410455558 a31.115816492174275,31.115816492174275 0 0,0 -0.5349133816538691,-0.027648911833135104 l 0.6091064642247506 -10.097461691860222" fill="#ff820c" stroke="none" /><path d="M 98.73552117531835 120.96189622390904 l -0.3658360804569225 6.064647192040037 a27.07567128815271,27.07567128815271 0 0,0 -0.464975968734123,-0.03206746515567827 l 0.47017480996997557 -6.057451382368074" fill="#ff4b07" stroke="none" /><path d="M 98.37488393609728 120.93702456842531 l -0.5273433174140961 6.793976281410244 a27.814411543690788,27.814411543690788 0 0,0 -0.47702468410169024,-0.04115969695948415 l 0.644212319257328 -6.783892332172096" fill="#ff5507" stroke="none" /><path d="M 98.01472825383883 120.90594882070398 l -3.8937337089468325 41.00305048822452 a62.187514024714794,62.187514024714794 0 0,0 -1.0647906162580927,-0.1103699010413027 l 4.598956921810519 -40.92995121872745" fill="#32ff49" stroke="none" /><path d="M 97.65516085044442 120.86867818915974 l -1.680297696603541 14.95436985477304 a36.048474278230195,36.048474278230195 0 0,0 -0.6160385171092465,-0.07459368523896973 l 1.9374636367641769 -14.923230640808722" fill="#ffc212" stroke="none" /><path d="M 97.2962882734958 120.8252237178851 l -5.011367002645715 38.59983959808533 a59.92378984930839,59.92378984930839 0 0,0 -1.0217617072745775,-0.14160686231436956 l 5.675057301107123 -38.50785817027836" fill="#31ff2f" stroke="none" /><path d="M 96.93821686468263 120.77559828337769 l -2.4194862664423065 16.417320398671688 a37.59464741614429,37.59464741614429 0 0,0 -0.6394028465394985,-0.09986157464577548 l 2.7017249765903224 -16.373240516678806" fill="#ffd614" stroke="none" /><path d="M 96.58105272829116 120.7198165907248 l -2.3888603210860215 14.477189549935071 a35.672957128623,35.672957128623 0 0,0 -0.6049981129520261,-0.10518667684588294 l 2.6377074055100977 -14.433924294568182" fill="#ffbe11" stroke="none" /><path d="M 96.22490169976321 120.6578951692458 l -2.5585668404524196 14.000855440044885 a35.23271644241173,35.23271644241173 0 0,0 -0.5956550173175476,-0.11415870173979462 l 2.799189472341662 -13.954739539956623" fill="#ffb811" stroke="none" /><path d="M 95.86986931433489 120.58985236759428 l -4.631974118741628 23.091681724848232 a44.55166552748196,44.55166552748196 0 0,0 -0.7506076033888172,-0.15729712131115778 l 5.0287731835598315 -23.008528622810534" fill="#d4ff1c" stroke="none" /><path d="M 95.16358092515715 120.4354850818985 l -4.8152363649693095 20.34598106148253 a41.90802349828239,41.90802349828239 0 0,0 -0.7005559043798276,-0.17217959685608902 l 5.164745554092348 -20.26008020631241" fill="#f3ff19" stroke="none" /><path d="M 94.81253420990036 120.34920634021253 l -1.0067256804195086 3.9491477009728757 a25.075446498203046,25.075446498203046 0 0,0 -0.41733848580433996,-0.11022288723139771 l 1.0745546090353377 -3.9312334644378963" fill="#ff2f04" stroke="none" /><path d="M 94.46302465271185 120.25689768951611 l -2.0735391475924607 7.585995554153767 a28.864279569308252,28.864279569308252 0 0,0 -0.4781420579655771,-0.13512772161299805 l 2.2038123736626516 -7.549179039202247" fill="#ff6409" stroke="none" /><path d="M 94.11515582081647 120.15858648285463 l -3.0324857057054295 10.387806965683266 a31.82139099707637,31.82139099707637 0 0,0 -0.5244847510576186,-0.15802295307964268 l 3.210845431203294 -10.334068643497897" fill="#ff8b0c" stroke="none" /><path d="M 93.76903079525671 120.05430185196036 l -0.2396789639414877 0.7714039553892712 a21.80778095307223,21.80778095307223 0 0,0 -0.3575215949083389,-0.11446712452980108 l 0.25292190394076697 -0.7671639841997636" fill="#ff0000" stroke="none" /><path d="M 93.42475214034765 119.94407469862007 l -3.444809248866228 10.448812645295147 a32.00201783572241,32.00201783572241 0 0,0 -0.5216790148690722,-0.17698184593684735 l 3.624157996672526 -10.387967812460177" fill="#ff8e0d" stroke="none" /><path d="M 93.08242187328487 119.8279376855182 l -3.6618578129528823 10.496027250932663 a32.11646484700083,32.11646484700083 0 0,0 -0.5204097509122563,-0.18660042138506316 l 3.841987124494865 -10.431439288507642" fill="#ff8f0d" stroke="none" /><path d="M 92.7421414339146 119.70592522655815 l -0.6583520360886445 1.7875019026324863 a22.904885942868187,22.904885942868187 0 0,0 -0.36880114416061516,-0.1394490356620798 l 0.6890234010095426 -1.7759046168637733" fill="#ff1001" stroke="none" /><path d="M 92.40401165467489 119.57807347666478 l -1.458056610595313 3.758028337805467 a25.030968378373814,25.030968378373814 0 0,0 -0.40035117735992726,-0.1593079957781725 l 1.5225288639970982 -3.732373497621228" fill="#ff2e04" stroke="none" /><path d="M 92.06813273071674 119.44442032107085 l -2.5330209000658304 6.209524364291062 a27.706294633468964,27.706294633468964 0 0,0 -0.4400400005635332,-0.18393675592385827 l 2.6395323601268257 -6.165002565347231" fill="#ff5407" stroke="none" /><path d="M 91.7346041902142 119.30500536409082 l -4.464618077374956 10.427749368069772 a32.34331395404812,32.34331395404812 0 0,0 -0.509914407773288,-0.2235314913646929 l 4.643453159805987 -10.349353323410629" fill="#ff920d" stroke="none" /><path d="M 91.40352486487194 119.15986991738527 l -7.686003064641314 17.13060488029417 a39.775842635536605,39.775842635536605 0 0,0 -0.62226844290917,-0.28565292179981466 l 7.979739503317903 -16.995764888160284" fill="#fff116" stroke="none" /><path d="M 91.07499286063937 119.00905698771935 l -4.288998645233029 9.13498649294373 a31.091753445515558,31.091753445515558 0 0,0 -0.48249564655015936,-0.2316272315562336 l 4.445606959783431 -9.059804984887933" fill="#ff820b" stroke="none" /><path d="M 90.7491055286396 118.85261126421891 l -3.2914535521444823 6.7077291287798335 a28.471766628516043,28.471766628516043 0 0,0 -0.43812095844634974,-0.21968294380690168 l 3.4064284182735927 -6.65007834406363" fill="#ff5e08" stroke="none" /><path d="M 90.42595943632237 118.69057910512821 l -5.9477700866624925 11.611321945473192 a34.046024924291096,34.046024924291096 0 0,0 -0.5192976912409579,-0.2716720085326721 l 6.146758680429946 -11.507220517995803" fill="#ffa90f" stroke="none" /><path d="M 90.10565033884886 118.52300852407294 l -3.772969344144236 7.063298318337248 a29.00783871001895,29.00783871001895 0 0,0 -0.43840125159780075,-0.23905131719112926 l 3.8939934076106772 -6.997306349386353" fill="#ff6609" stroke="none" /><line stroke="#e1ed5e" stroke-width="0.3" x1="58.666819895761336" x2="56.23545636021788" y1="174.27360380694188" y2="178.64263932499728" /><path d="M 58.180547188652646 175.14741091055294 a86.0,86.0 0 0,1 -31.652253787137756,-30.449443065178592" fill="none" id="id32" stroke="none" /><text fill="#e1ed5e" style="font-size:6.75px; font-family:Arial;" text-anchor="middle"><textPath startOffset="22.20632615414155" xlink:href="#id32">August</textPath></text><path d="M 89.7882731507175 118.34994917583269 l -5.99622037151364 10.77490033647923 a33.33098276719319,33.33098276719319 0 0,0 -0.49893502536167483,-0.28330832880464873 l 6.180804163796523 -10.67008884187995" fill="#ff9f0e" stroke="none" /><path d="M 89.4739219176387 118.17145234162733 l -7.014613102167849 12.109515688905441 a34.99446916438605,34.99446916438605 0 0,0 -0.5186382447744525,-0.3064206167509364 l 7.222019217970684 -11.986976499860756" fill="#ffb510" stroke="none" /><path d="M 89.1626897886671 117.98757091392108 l -2.1035890199689398 3.49149889894895 a25.076230038441846,25.076230038441846 0 0,0 -0.36780954472011096,-0.22593866341608856 l 2.1633777646213597 -3.454771768704483" fill="#ff2f04" stroke="none" /><path d="M 88.8546689885994 117.79835938074946 l -4.098919605299203 6.545704576498446 a28.72317229728166,28.72317229728166 0 0,0 -0.4167844429487332,-0.2660115509632909 l 4.21098585029486 -6.474178596711351" fill="#ff6209" stroke="none" /><path d="M 88.54995079064634 117.60387380957326 l -3.9681412162097702 6.100817206240329 a28.277782306152115,28.277782306152115 0 0,0 -0.405752917731765,-0.2689109088422609 l 4.0725688326814975 -6.031608276306749" fill="#ff5c08" stroke="none" /><path d="M 88.24862548938628 117.40417183066458 l -0.9116442966454644 1.3501751623125147 a22.629131146510872,22.629131146510872 0 0,0 -0.3209490913787612,-0.22075171162037244 l 0.9347502726471159 -1.334282661327041" fill="#ff0c01" stroke="none" /><path d="M 87.95078237400918 117.19931262002967 l -4.252686056061454 6.070375623000448 a28.411801325975865,28.411801325975865 0 0,0 -0.39813412842006934,-0.28405812951098347 l 4.35654751233041 -5.996273231645246" fill="#ff5d08" stroke="none" /><path d="M 87.65650970185807 116.9893568818739 l -4.030120437816042 5.546984907931373 a27.856450416368588,27.856450416368588 0 0,0 -0.385500150561274,-0.28518379537824906 l 4.1250055587958805 -5.476791163813357" fill="#ff5607" stroke="none" /><path d="M 87.36589467227662 116.77436683061367 l -2.457705433377924 3.2631081846855654 a25.085118238462297,25.085118238462297 0 0,0 -0.3426761792837574,-0.2627494818128806 l 2.5135103411551682 -3.220319361045318" fill="#ff2f04" stroke="none" /><path d="M 87.07902340077011 116.55440617244103 l -2.4296740536136 3.1129079788410197 a24.94886212617448,24.94886212617448 0 0,0 -0.3362661185733985,-0.26715014173040424 l 2.482897664904357 -3.070623923105485" fill="#ff2d04" stroke="none" /><path d="M 86.51685102203217 116.09983520530335 l -7.211125938894761 8.610595303115321 a32.23132622536771,32.23132622536771 0 0,0 -0.4222833609669506,-0.35987904145790806 l 7.358274776438768 -8.485191871434463" fill="#ff910d" stroke="none" /><path d="M 85.70375840098266 115.38237550388516 l -1.3917927540982167 1.4975319645267355 a23.04442878456052,23.04442878456052 0 0,0 -0.28823550755413474,-0.27254466314570963 l 1.4173640960431684 -1.4733526646350952" fill="#ff1202" stroke="none" /><path d="M 85.44109423537348 115.13401014063109 l -2.725441661032306 2.8331017730726735 a24.931220917765632,24.931220917765632 0 0,0 -0.306713433877826,-0.3001836496700818 l 2.7738050472859257 -2.7857680204800217" fill="#ff2d04" stroke="none" /><path d="M 84.9287848128048 114.62390073753433 l -12.770847179260052 12.391807771571994 a38.79470251292801,38.79470251292801 0 0,0 -0.46090591038942064,-0.48325800436576033 l 12.982259641028431 -12.170142650623733" fill="#ffe515" stroke="none" /><path d="M 84.67929136418377 114.36230785411682 l -6.918246982964176 6.485469787465398 a30.482798093464787,30.482798093464787 0 0,0 -0.3555652803492926,-0.3858958868234092 l 7.028858671309197 -6.365422645840645" fill="#ff7a0b" stroke="none" /><path d="M 83.72743513129214 113.27417163493432 l -1.5902500297005857 1.297229539843352 a23.052242587026424,23.052242587026424 0 0,0 -0.248176149328228,-0.30963790511438327 l 1.6123440910836746 -1.269663801150709" fill="#ff1202" stroke="none" /><path d="M 83.28015986056508 112.70617746262583 l -16.1860504732747 12.300526082625455 a41.329563985308326,41.329563985308326 0 0,0 -0.42557393162988116,-0.5701258277161799 l 16.39538567159967 -12.020087375399967" fill="#faff18" stroke="none" /><path d="M 83.06392112726016 112.41649034213515 l -6.625939325030351 4.8577307802478025 a29.215876111063906,29.215876111063906 0 0,0 -0.2938563532432118,-0.4081407732518591 l 6.70857547064917 -4.742956401544805" fill="#ff6809" stroke="none" /><path d="M 82.44556493220864 111.52570212397912 l -17.3837571363384 11.413640243920488 a41.79582159456167,41.79582159456167 0 0,0 -0.3896865999702775,-0.6048022569582849 l 17.577648599685723 -11.112716387040756" fill="#f5ff19" stroke="none" /><path d="M 82.24976979558568 111.22182372390057 l -6.906805433331164 4.366532274541753 a29.17132580420752,29.17132580420752 0 0,0 -0.26467471778419693,-0.42673991933293737 l 6.980944790783317 -4.246996023843551" fill="#ff6809" stroke="none" /><path d="M 82.05923443525364 110.91462005526583 l -14.503836573580259 8.82369623375295 a37.977010649071005,37.977010649071005 0 0,0 -0.33495565028665975,-0.5614049364934506 l 14.653573099565149 -8.572729203373388" fill="#ffdb14" stroke="none" /><line stroke="#e1ed5e" stroke-width="0.3" x1="26.63291911575756" x2="22.317208475507996" y1="142.92168965132927" y2="145.44649492493687" /><path d="M 25.769776987707644 143.4266507060508 a86.0,86.0 0 0,1 -11.730757126820373,-40.83630448921669" fill="none" id="id33" stroke="none" /><text fill="#e1ed5e" style="font-size:6.75px; font-family:Arial;" text-anchor="middle"><textPath startOffset="21.46611528233685" xlink:href="#id33">September</textPath></text><path d="M 81.87401531095188 110.60418214915194 l -17.117840897514988 10.014391272609192 a40.83200719931162,40.83200719931162 0 0,0 -0.3496930946613313,-0.6097193862607075 l 17.287685988328697 -9.718252040490178" fill="#fffe18" stroke="none" /><path d="M 81.51974371655577 109.97397251340807 l -18.346400812451176 9.90172942500187 a41.84789361966952,41.84789361966952 0 0,0 -0.3366712696721409,-0.6368551643390229 l 18.514124590348203 -9.58445924557672" fill="#f4ff19" stroke="none" /><path d="M 81.18737489456691 109.33194174019688 l -6.209397918917383 3.0801517223825425 a27.93137483825191,27.93137483825191 0 0,0 -0.20994650269007833,-0.43255197964156566 l 6.261497678222181 -2.972810786775692" fill="#ff5708" stroke="none" /><path d="M 81.02952815118164 109.00673069616217 l -7.506241067368789 3.563785464749767 a29.309285276136297,29.309285276136297 0 0,0 -0.212457961014794,-0.4576155468783444 l 7.56647364522341 -3.4340498505925954" fill="#ff6a09" stroke="none" /><path d="M 80.45479744820244 107.68017299344265 l -19.0610713805349 7.489936482106355 a41.47983375615716,41.47983375615716 0 0,0 -0.25540856124673245,-0.6667911584646243 l 19.18717422137514 -7.160721756808573" fill="#f8ff18" stroke="none" /><path d="M 80.20201598880116 107.00284435728193 l -43.13143557626956 15.256236699448602 a66.75012014300611,66.75012014300611 0 0,0 -0.3738298173551723,-1.0865244350927836 l 43.387656224567955 -14.511539561266522" fill="#38ff7e" stroke="none" /><path d="M 79.97269907076064 106.31721596034903 l -4.067364851735147 1.2829697945183778 a25.26491129225181,25.26491129225181 0 0,0 -0.127254819510847,-0.41587611307603034 l 4.088846443752125 -1.2127667088902996" fill="#ff3204" stroke="none" /><path d="M 79.67330655649465 105.27499134158121 l -14.591222419393828 3.7865761167358283 a36.07454577690669,36.07454577690669 0 0,0 -0.15080652195987548,-0.6023970909688363 l 14.654240255648762 -3.5348511863696" fill="#ffc312" stroke="none" /><path d="M 79.58551787078972 104.9243191809786 l -34.403898051650806 8.298803467258471 a56.39065328779003,56.39065328779003 0 0,0 -0.21949238507382077,-0.9455674502485971 l 34.54165100265518 -7.7053673596613" fill="#53ff2b" stroke="none" /><path d="M 79.35854240842038 103.8639653848113 l -17.07476741551944 3.196300937303236 a38.37135636546237,38.37135636546237 0 0,0 -0.11594281303140022,-0.650268868542943 l 17.12725667089003 -2.9019133180270793" fill="#ffe015" stroke="none" /><path d="M 79.29508885075956 103.50808413554451 l -17.495301068530456 2.9642719875829147 a38.74464617553395,38.74464617553395 0 0,0 -0.10575119746067294,-0.658512807535022 l 17.54373402035242 -2.6626799503546787" fill="#ffe415" stroke="none" /><path d="M 79.23777060512086 103.15116336523772 l -13.683120867518198 2.076739851958183 a34.83982099189954,34.83982099189954 0 0,0 -0.08488630968868356,-0.5936946522544544 l 13.71684122822348 -1.840899727723328" fill="#ffb310" stroke="none" /><path d="M 79.18660465613746 102.79330883721812 l -43.028433777314426 5.7747283581613855 a64.41420966618287,64.41420966618287 0 0,0 -0.13802581990644364,-1.1002015894699135 l 43.12146110646771 -5.033209014404063" fill="#35ff63" stroke="none" /><path d="M 79.1416061653843 102.43462659150553 l -13.525274461174755 1.578692641517736 a34.61709659606218,34.61709659606218 0 0,0 -0.06398838183690024,-0.5924529448711685 l 13.550445144512707 -1.3456433747617855" fill="#ffb010" stroke="none" /><path d="M 79.07016306316243 101.71520430193888 l -16.587344413326587 1.3593361754961872 a37.64295014486102,37.64295014486102 0 0,0 -0.04736458499305164,-0.6462521308921692 l 16.608285556983976 -1.0736109081072576" fill="#ffd714" stroke="none" /><path d="M 79.04373962182676 101.35467743843564 l -9.442879496841847 0.6104169149168225 a30.462588546581358,30.462588546581358 0 0,0 -0.029321908378004444,-0.5235623714332079 l 9.451987756107382 -0.4477828271481769" fill="#ff790b" stroke="none" /><path d="M 79.0235259727143 100.99374915477108 l -9.948160022635589 0.4712887209338475 a30.959317290579932,30.959317290579932 0 0,0 -0.020636400497669426,-0.5325338010604977 l 9.954798555984459 -0.29997767285935295" fill="#ff800b" stroke="none" /><path d="M 79.0095281055655 100.63252640178507 l -13.300610492257318 0.4008002935104569 a34.30664797543031,34.30664797543031 0 0,0 -0.012706426544781563,-0.5904177125915939 l 13.305538981487107 -0.1717927651287341" fill="#ffac0f" stroke="none" /><line stroke="#e1ed5e" stroke-width="0.3" x1="15.007084014347285" x2="10.007500721073583" y1="101.09737516637583" y2="101.16192664675087" /><path d="M 14.007167355692545 101.11028546245083 a86.0,86.0 0 0,1 10.666146001902534,-42.60595125391555" fill="none" id="id34" stroke="none" /><text fill="#e1ed5e" style="font-size:6.75px; font-family:Arial;" text-anchor="middle"><textPath startOffset="22.20632615414155" xlink:href="#id34">October</textPath></text><path d="M 79.00175016825051 100.2711162175752 l -23.249008182223296 0.3001765962041704 a44.250945947337165,44.250945947337165 0 0,0 -0.0032781579310632416,-0.7617284543087556 l 23.250730637443862 0.10006133630826056" fill="#d8ff1c" stroke="none" /><path d="M 79.00019446554 99.90962569577889 l -9.87064256195596 -0.0424790816414141 a30.870733967556497,30.870733967556497 0 0,0 0.006860642652261092,-0.5313643341110792 l 9.868448912185983 0.2123796738129653" fill="#ff7f0b" stroke="none" /><path d="M 79.00486145842228 99.54816195383935 l -9.875014085426928 -0.21252096342836932 a30.877300660973965,30.877300660973965 0 0,0 0.01600959447531415,-0.531280499797326 l 9.869892796495968 0.38247161065068974" fill="#ff7f0b" stroke="none" /><path d="M 79.01574976396665 99.18683210126434 l -13.422134336682575 -0.5201257444197822 a34.43220834196528,34.43220834196528 0 0,0 0.028048135489688028,-0.5920518098441065 l 13.411192592959388 0.7510886608868979" fill="#ffae10" stroke="none" /><path d="M 79.03285615573316 98.82574320788736 l -19.66912030819659 -1.1015614853568152 a40.699942421345625,40.699942421345625 0 0,0 0.04519517159143775,-0.6991493006630839 l 19.64724454560074 1.439969850272911" fill="#fffc17" stroke="none" /><path d="M 79.05617556472873 98.46500227214037 l -21.30367540026138 -1.5613716317917954 a42.36081615791555,42.36081615791555 0 0,0 0.0595583315661831,-0.7267625008293734 l 21.2736425848757 1.9278480498289472" fill="#eeff19" stroke="none" /><path d="M 79.08570108090925 98.10471618934814 l -38.64567093477648 -3.5021262131623514 a59.804030332066624,59.804030332066624 0 0,0 0.10173199329755239,-1.0244272891875628 l 38.579661815796705 4.166829033054345" fill="#32ff2f" stroke="none" /><path d="M 79.12142395522702 97.74499172005258 l -11.751338997553257 -1.269213316230244 a32.81968149644956,32.81968149644956 0 0,0 0.06549815552623076,-0.5611481974992327 l 11.727750489023437 1.4713052520543384" fill="#ff990e" stroke="none" /><path d="M 79.16333360222342 97.38593545837743 l -21.71200399946284 -2.72388004391237 a42.88219916202013,42.88219916202013 0 0,0 0.09818798594803485,-0.7316145434134307 l 21.66190001445697 3.09721292939046" fill="#e8ff1a" stroke="none" /><path d="M 79.21141760316559 97.0276538004421 l -14.665644494017926 -2.096890102641119 a35.81479249019279,35.81479249019279 0 0,0 0.09251149620415695,-0.6095351726422827 l 14.627377104374466 2.3490243876754935" fill="#ffbf11" stroke="none" /><path d="M 79.26566170972629 96.67025291283419 l -15.611450993432108 -2.5070577485560137 a36.81147496835533,36.81147496835533 0 0,0 0.10585602133494691,-0.6247682300846664 l 15.565983110576937 2.775411766956508" fill="#ffcc13" stroke="none" /><path d="M 79.32604984820605 96.31383870115002 l -24.26803560276257 -4.326986037075965 a45.65076794304798,45.65076794304798 0 0,0 0.14459179917574913,-0.7724151728968459 l 24.18995807967696 4.744079287435384" fill="#c7ff1e" stroke="none" /><path d="M 79.3925641242962 95.95851677861259 l -35.37672646667222 -6.9380027338206975 a57.05064018061607,57.05064018061607 0 0,0 0.19728845992460192,-0.9620485961627853 l 35.25205871083262 7.545926986146886" fill="#4dff2c" stroke="none" /><path d="M 79.46518482838121 95.60439243477599 l -13.693880008236738 -2.931261959672661 a35.0040939141456,35.0040939141456 0 0,0 0.13119136518814642,-0.5881051660968564 l 13.641394256046553 3.1665452953194766" fill="#ffb510" stroke="none" /><path d="M 79.54389044137918 95.25157060432595 l -17.331585550202504 -4.02314086480527 a38.79240062785386,38.79240062785386 0 0,0 0.15658681773256106,-0.6491534514291969 l 17.25976593220913 4.320879547893863" fill="#ffe515" stroke="none" /><path d="M 79.62865764111835 94.90015583598534 l -15.1557036039731 -3.79414008240649 a36.62340714109463,36.62340714109463 0 0,0 0.15835903370564633,-0.6102219555832513 l 15.088148238397146 4.054458463538605" fill="#ffca12" stroke="none" /><path d="M 79.71946130924805 94.55025226153421 l -29.26623139748875 -7.8643659719261185 a51.30446423139247,51.30446423139247 0 0,0 0.23652146983827319,-0.8508935702829127 l 29.126523157084115 8.366970845627973" fill="#88ff25" stroke="none" /><path d="M 79.81627453868168 94.20196356495316 l -7.973962737506667 -2.2906240263907045 a29.296447442696373,29.296447442696373 0 0,0 0.14340485869933337,-0.48348989316014596 l 7.933351981695626 2.4275433062973897" fill="#ff6a09" stroke="none" /><path d="M 79.91906864156998 93.8553929516997 l -13.874375680241057 -4.24544982868966 a35.509381267455396,35.509381267455396 0 0,0 0.18387859464856388,-0.5829453943931544 l 13.79924160182429 4.4836453895092285" fill="#ffbc11" stroke="none" /><path d="M 80.02781315780177 93.51064311812611 l -13.76654274411187 -4.4730208865941465 a35.474999653795045,35.474999653795045 0 0,0 0.19369806970236084,-0.5791325740543929 l 13.687507380637738 4.709326563570862" fill="#ffbb11" stroke="none" /><path d="M 80.14247586403 93.16781622104843 l -23.594131648125725 -8.117801716920749 a45.95158818480959,45.95158818480959 0 0,0 0.2637772565511977,-0.7457338248976192 l 23.450901310764717 8.522733168244978" fill="#c4ff1e" stroke="none" /><path d="M 80.2630227832202 92.82701384747504 l -59.210931650339425 -21.518958457574875 a84.0,84.0 0 0,0 0.5055816459934896,-1.3547074518826343 l 58.83174541584431 22.534989046486853" fill="#4dd2ff" stroke="none" /><path d="M 80.38941819471856 92.48833698450439 l -8.046923523006933 -3.082304156830976 a29.617051531721266,29.617051531721266 0 0,0 0.18645548790380437,-0.47450887904290834 l 7.992674485221437 3.2203620407696474" fill="#ff6e0a" stroke="none" /><path d="M 80.52162464483688 92.15188598940014 l -19.442912214981032 -7.8338254078674305 a41.96176652671258,41.96176652671258 0 0,0 0.2757054171729015,-0.6676425364417002 l 19.305185110921933 8.167342514762442" fill="#f3ff19" stroke="none" /><path d="M 80.65960295795068 91.81776055985345 l -21.65373138133083 -9.16092955844976 a44.51184197611302,44.51184197611302 0 0,0 0.3046078673324747,-0.7030769552144193 l 21.492832804155675 9.53230565825078" fill="#d4ff1c" stroke="none" /><path d="M 80.803312248108 91.48605970444005 l -31.200547691598306 -13.837783041965528 a55.131487160277814,55.131487160277814 0 0,0 0.39221506876715395,-0.8641939139509243 l 30.957730305867802 14.372798964758523" fill="#60ff29" stroke="none" /><path d="M 80.95270993114464 91.15688171328213 l -14.265865095971348 -6.623237849058266 a36.72838791935307,36.72838791935307 0 0,0 0.27116360001415685,-0.5711396969695903 l 14.14974330211544 6.867819961668388" fill="#ffcb12" stroke="none" /><path d="M 81.10775173730289 90.83032412892265 l -12.285297129220734 -5.9628791178477 a34.65593105311034,34.65593105311034 0 0,0 0.2651013483551936,-0.5344281415805177 l 12.180835767912127 6.173466847927179" fill="#ffb110" stroke="none" /><path d="M 81.26839172434947 90.50648371742162 l -3.8502748861710976 -1.9513886253847843 a25.31654193381241,25.31654193381241 0 0,0 0.20035097401933463,-0.3870143113711362 l 3.816114478991649 2.017375659016256" fill="#ff3204" stroke="none" /><path d="M 81.43458229118936 90.18545643968196 l -35.68014220705255 -18.862183195763578 a61.35906964767695,61.35906964767695 0 0,0 0.5016597760950394,-0.9294993761882528 l 35.350174331739034 19.473563555284304" fill="#31ff3f" stroke="none" /><path d="M 81.6062741919709 89.86733742301443 l -20.525053197309877 -11.30675973935833 a44.433322951642495,44.433322951642495 0 0,0 0.3748106491842442,-0.6667463224026553 l 20.327384906833203 11.658389571695771" fill="#d5ff1c" stroke="none" /><line stroke="#e1ed5e" stroke-width="0.3" x1="26.266209847984243" x2="21.928928074336255" y1="57.711370442889674" y2="55.22380399835377" /><path d="M 25.398753493254645 57.213857153982495 a86.0,86.0 0 0,1 29.58750427330803,-30.492523968695096" fill="none" id="id35" stroke="none" /><text fill="#e1ed5e" style="font-size:6.75px; font-family:Arial;" text-anchor="middle"><textPath startOffset="21.46611528233685" xlink:href="#id35">November</textPath></text><path d="M 81.78341655067845 89.55222093294921 l -6.5635955873630545 -3.7644268900924254 a28.566485105073735,28.566485105073735 0 0,0 0.24831121382470345,-0.4244443556889954 l 6.497824699068026 3.8768506581353126" fill="#ff6008" stroke="none" /><path d="M 81.96595687620814 89.24020034530311 l -12.626233200964506 -7.533293488503932 a35.70279822445626,35.70279822445626 0 0,0 0.3194281782547731,-0.5250559370665397 l 12.494689224423517 7.7495171987775455" fill="#ffbe11" stroke="none" /><path d="M 82.15384107792192 88.93136811851018 l -6.404011832966625 -3.971927508508282 a28.53575316007772,28.53575316007772 0 0,0 0.26249143004114667,-0.4151984048718217 l 6.334692806679516 4.081573561094319" fill="#ff5f08" stroke="none" /><path d="M 82.34701348167596 88.62581576622439 l -10.526025271036932 -6.782135734249596 a33.521763978141955,33.521763978141955 0 0,0 0.3167062267619539,-0.4823653113237447 l 10.407722408917058 6.962319109551007" fill="#ffa20f" stroke="none" /><path d="M 82.54541684631803 88.32363383020206 l -3.5492278235417776 -2.3742809165263137 a25.27015550231887,25.27015550231887 0 0,0 0.24497073376278977,-0.35946432399603206 l 3.5078326241102475 2.4350232637927616" fill="#ff3204" stroke="none" /><path d="M 82.7489923806493 88.02491185347247 l -16.980453997174788 -11.787278625750043 a41.67064961125395,41.67064961125395 0 0,0 0.41410184278300605,-0.5857176894857963 l 16.775039534587904 12.077822815567625" fill="#f6ff19" stroke="none" /><path d="M 82.95767976084542 87.72973835380427 l -17.81243948804493 -12.824738064315493 a42.9489614089953,42.9489614089953 0 0,0 0.43713327651483025,-0.5962492979059767 l 17.589043599016467 13.129449805892971" fill="#e7ff1a" stroke="none" /><path d="M 83.17141714833178 87.43820079747576 l -6.483793479042997 -4.839867532060206 a29.090976183797046,29.090976183797046 0 0,0 0.30299506732208814,-0.39870599191329836 l 6.399522471496799 4.95075829985453" fill="#ff6709" stroke="none" /><line stroke="#e1ed5e" stroke-width="0.3" x1="56.762969772571076" x2="54.21961505331055" y1="26.818313649435495" y2="22.513508569990535" /><path d="M 56.25429882871897 25.957352633546506 a86.0,86.0 0 0,1 42.265352541879196,-11.944610805530505" fill="none" id="id36" stroke="none" /><text fill="#e1ed5e" style="font-size:6.75px; font-family:Arial;" text-anchor="middle"><textPath startOffset="22.20632615414155" xlink:href="#id36">December</textPath></text></svg>