<?xml version="1.0" encoding="utf-8" ?>
<svg baseProfile="full" height="200mm" version="1.1" viewBox="0,0,200,200" width="200mm" xmlns="http://www.w3.org/2000/svg" xmlns:ev="http://www.w3.org/2001/xml-events" xmlns:xlink="http://www.w3.org/1999/xlink"><defs /><rect fill="#1a1a1a" height="200" width="200" x="0" y="0" /><text alignment-baseline="middle" fill="#e1ed5e" style="dominant-baseline: central; font-size:9.0px; font-family:Arial;" text-anchor="middle" x="100.0" y="100.0">2023</text><line stroke="#e1ed5e" stroke-width="0.3" x1="100.0" x2="100.0" y1="15.0" y2="10.0" /><path d="M 100.0 14.0 a86.0,86.0 0 0,1 42.46469731375804,11.215312516191453" fill="none" id="id25" stroke="none" /><text fill="#e1ed5e" style="font-size:6.75px; font-family:Arial;" text-anchor="middle"><textPath startOffset="22.20632615414155" xlink:href="#id25">January</textPath></text><path d="M 100.0 79.0 l 0.0 -13.585826794993537 a34.58582679499354,34.58582679499354 0 0,0 0.5953381545662342,0.0051242634513148306 l -0.2338576752937058 13.58381390815078" fill="#ffa70f" stroke="none" /><path d="M 101.44485096284872 79.0497635885617 l 0.9306640880294371 -13.494563221531264 a34.52661717446945,34.52661717446945 0 0,0 0.592558645609975,0.04599395537976384 l -1.1628129230017532 13.476544003963035" fill="#ffa60f" stroke="none" /><path d="M 102.52436894288641 79.15227682838746 l 1.59593726171094 -13.180188389327773 a34.276459683269785,34.276459683269785 0 0,0 0.5851240931117541,0.07596590045982093 l -1.8225760833305402 13.150764165703814" fill="#ffa30f" stroke="none" /><path d="M 107.08798089147638 80.2323363322302 l 6.869350024621276 -19.157924235686696 a41.352248789288026,41.352248789288026 0 0,0 0.6679720789702893,0.24601975393302436 l -7.198104429364142 19.036841213947344" fill="#fffd18" stroke="none" /><path d="M 109.41281617654863 81.2277094730956 l 7.284613311985076 -14.52794518705671 a37.25197780158693,37.25197780158693 0 0,0 0.5707349130589087,0.29235258993306334 l -7.5336087126327405 14.400400071811147" fill="#ffca12" stroke="none" /><line stroke="#e1ed5e" stroke-width="0.3" x1="143.23703022742887" x2="145.7803849466894" y1="26.81831364943548" y2="22.513508569990506" /><path d="M 143.74570117128098 25.957352633546492 a86.0,86.0 0 0,1 28.547481713284135,27.462654790039103" fill="none" id="id26" stroke="none" /><text fill="#e1ed5e" style="font-size:6.75px; font-family:Arial;" text-anchor="middle"><textPath startOffset="19.985693538727396" xlink:href="#id26">February</textPath></text><path d="M 110.68208982089419 81.91981866633111 l 9.142103317354568 -15.473646872505888 a38.97252905409243,38.97252905409243 0 0,0 0.5746368271705843,0.34621225871493316 l -9.40710221074279 15.313988004332339" fill="#ffe015" stroke="none" /><path d="M 111.2981086023043 82.29822771554956 l 8.772567863528039 -13.744778363910331 a37.30573148292411,37.30573148292411 0 0,0 0.5383269888839767,0.35014284810952895 l -9.007861878196294 13.591736591641274" fill="#ffcb12" stroke="none" /><path d="M 111.90073688211348 82.69761687909136 l 8.44776829594355 -12.282140595240424 a35.906903326419,35.906903326419 0 0,0 0.5062340928063279,0.35464933330044573 l -8.657933528333528 12.134906419176042" fill="#ffb911" stroke="none" /><path d="M 112.48926042617603 83.11751280151076 l 9.654606885480113 -13.05071490133621 a37.23368699800261,37.23368699800261 0 0,0 0.5119700157347495,0.385605201599876 l -9.877823054973245 12.882593110230488" fill="#ffca12" stroke="none" /><path d="M 112.77801427241765 83.33499621200491 l 9.876016342109741 -12.88023680696832 a37.23071775964329,37.23071775964329 0 0,0 0.5052163099783794,0.3943293435464466 l -10.09626520724755 12.708329074198648" fill="#ffca12" stroke="none" /><path d="M 113.89432698308785 84.25364557470407 l 10.796704092889424 -12.23583765364199 a37.318227304327465,37.318227304327465 0 0,0 0.47800919558378113,0.4291613754746549 l -11.005724276069195 12.048177269398039" fill="#ffcb12" stroke="none" /><path d="M 115.4437574822437 85.77008943001954 l 11.931223565481403 -10.993454444130386 a37.22375222889788,37.22375222889788 0 0,0 0.4301228665940518,0.4749524122429571 l -12.11869007269149 10.786449244617879" fill="#ffca12" stroke="none" /><line stroke="#e1ed5e" stroke-width="0.3" x1="172.23445277983987" x2="176.4835382374775" y1="55.19839476539836" y2="52.563006222186495" /><path d="M 173.08426987136738 54.67131705675599 a86.0,86.0 0 0,1 12.851231095245387,41.99856678651699" fill="none" id="id27" stroke="none" /><text fill="#e1ed5e" style="font-size:6.75px; font-family:Arial;" text-anchor="middle"><textPath startOffset="22.20632615414155" xlink:href="#id27">March</textPath></text><path d="M 118.3937258080291 89.86733742301442 l 2.393892476554963 -1.3187379742242078 a23.733091845139388,23.733091845139388 0 0,0 0.19403712620546348,0.359521325726485 l -2.4162377019788916 1.277335665165264" fill="#ff1001" stroke="none" /><path d="M 119.61058180528143 92.48833698450437 l 6.353443349370382 -2.43363128653629 a27.803587556022705,27.803587556022705 0 0,0 0.16734504239402767,0.44840151489543034 l -6.394392980266034 2.3239066346115265" fill="#ff4b07" stroke="none" /><line stroke="#e1ed5e" stroke-width="0.3" x1="184.98032266829074" x2="189.97916517819016" y1="98.17113171792111" y2="98.06355123074" /><path d="M 185.9800911702706 98.14961562048488 a86.0,86.0 0 0,1 -9.607161424134198,41.387399972396054" fill="none" id="id28" stroke="none" /><text fill="#e1ed5e" style="font-size:6.75px; font-family:Arial;" text-anchor="middle"><textPath startOffset="21.466115282336823" xlink:href="#id28">April</textPath></text><path d="M 120.99980553446 99.90962569577887 l 6.841347219519452 -0.029442272400315935 a27.841410572786188,27.841410572786188 0 0,0 -0.002062521804387759,0.4792574302619966 l -6.840840400425561 -0.08832463606536536" fill="#ff4b07" stroke="none" /><path d="M 120.9764740272857 100.99374915477107 l 13.52758979301525 0.6408622776836661 a34.542761537701544,34.542761537701544 0 0,0 -0.03324929814756418,0.5936885540398749 l -13.514554143980158 -0.8736225480589642" fill="#ffa70f" stroke="none" /><path d="M 120.8583938346157 102.4346265915055 l 6.931429292436772 0.8090480123402893 a27.978486277289818,27.978486277289818 0 0,0 -0.05995188838265774,0.4778755375989341 l -6.916475894807266 -0.9282413042266183" fill="#ff4d07" stroke="none" /><path d="M 120.49622156327973 104.57218783832717 l 6.649781952479657 1.4833979071111203 a27.813227529324543,27.813227529324543 0 0,0 -0.10825892751865507,0.46637662635099564 l -6.62326245903045 -1.597643190810681" fill="#ff4b07" stroke="none" /><path d="M 119.79798401119884 107.00284435728193 l 6.41524813080672 2.2691696360584586 a27.804743890627243,27.804743890627243 0 0,0 -0.16348625235502887,0.4498439519295678 l -6.375237617446464 -2.3792613849941575" fill="#ff4b07" stroke="none" /><path d="M 118.81262510543309 109.33194174019688 l 12.164461184196758 6.034141563743087 a34.57884311394463,34.57884311394463 0 0,0 -0.26909145423489245,0.5309429679183207 l -12.058791060175597 -6.242638743364102" fill="#ffa70f" stroke="none" /><line stroke="#e1ed5e" stroke-width="0.3" x1="174.80103733775053" x2="179.2010983576182" y1="140.37084112569926" y2="142.7455964860345" /><path d="M 175.68104954172406 140.8457921977663 a86.0,86.0 0 0,1 -30.038265399797805,32.042727171017184" fill="none" id="id29" stroke="none" /><text fill="#e1ed5e" style="font-size:6.75px; font-family:Arial;" text-anchor="middle"><textPath startOffset="22.206326154141568" xlink:href="#id29">May</textPath></text><path d="M 118.48025628344425 109.97397251340804 l 5.960762714982505 3.2170811143698383 a27.773500058371646,27.773500058371646 0 0,0 -0.230683504870471,0.4187575678933688 l -5.9045028006605245 -3.3192092006610125" fill="#ff4a06" stroke="none" /><path d="M 118.30583269289576 110.29060199501025 l 5.912283260778996 3.323582977028384 a27.782425610419946,27.782425610419946 0 0,0 -0.2379339899085255,0.4148579669212086 l -5.854197274718091 -3.4248607898079078" fill="#ff4b06" stroke="none" /><path d="M 117.35343817320211 111.8261652097733 l 8.02183381008984 5.46678594619745 a30.707500515490196,30.707500515490196 0 0,0 -0.30142934759911355,0.4342314568795912 l -7.92654355532859 -5.604058665264061" fill="#ff730a" stroke="none" /><path d="M 116.93607887273984 112.41649034213515 l 5.464989751707577 4.0065940281587284 a27.776349215672553,27.776349215672553 0 0,0 -0.28601536048722886,0.3831643153348514 l -5.395213124525256 -4.100071223002895" fill="#ff4a06" stroke="none" /><path d="M 116.27256486870786 113.27417163493432 l 5.256782234711746 4.288164170432848 a27.783959862481872,27.783959862481872 0 0,0 -0.3054965462402048,0.36799026993105555 l -5.182189688577998 -4.378015697477674" fill="#ff4b06" stroke="none" /><path d="M 115.80600337817218 113.82643327865902 l 10.216522716203936 8.936988452790855 a34.57376510095958,34.57376510095958 0 0,0 -0.39569040363584573,0.44456236317004116 l -10.061173462919752 -9.111524985701763" fill="#ffa70f" stroke="none" /><path d="M 115.32070863581623 114.36230785411682 l 4.957598892945335 4.647471811535839 a27.79534995584135,27.79534995584135 0 0,0 -0.3302265579100669,0.34624122574032484 l -4.876865783656304 -4.732120153858671" fill="#ff4b06" stroke="none" /><path d="M 115.07121518719521 114.62390073753431 l 9.739159475682607 9.450100716523895 a34.5703953827891,34.5703953827891 0 0,0 -0.41807028585695805,0.4235029923366398 l -9.575048564770114 -9.6163442028412" fill="#ffa70f" stroke="none" /><path d="M 114.81725581225074 114.88116024355365 l 9.580557052824448 9.621876448114882 a34.578202378268344,34.578202378268344 0 0,0 -0.4253942967230977,0.41633785297464887 l -9.413512803725556 -9.785364404012103" fill="#ffa70f" stroke="none" /><path d="M 114.29624159901734 115.38237550388516 l 9.243574013981647 9.94583964577054 a34.57804797499765,34.57804797499765 0 0,0 -0.4394712658611079,0.40144658160098023 l -9.071003198653674 -10.103478993958104" fill="#ffa70f" stroke="none" /><path d="M 113.75828350139079 115.86535959552629 l 4.4465140934218805 5.127496103099084 a27.786950999550218,27.786950999550218 0 0,0 -0.364054739078009,0.31025534664117305 l -4.357593877766824 -5.2032758399632035" fill="#ff4b06" stroke="none" /><path d="M 113.20401910651253 116.32954008644616 l 8.51330348677329 10.52848601883492 a34.53976935204986,34.53976935204986 0 0,0 -0.46553442468421835,0.3698487021600551 l -8.330811569371722 -10.673468635000102" fill="#ffa70f" stroke="none" /><path d="M 112.63410532772338 116.77436683061366 l 4.074758570255956 5.410077977874274 a27.77293150213071,27.77293150213071 0 0,0 -0.38434434809785256,0.28432876034714116 l -3.9810292517395394 -5.4794166869611844" fill="#ff4a06" stroke="none" /><path d="M 112.34349029814194 116.9893568818739 l 7.953923277527454 10.947636196003605 a34.53202253119767,34.53202253119767 0 0,0 -0.4838966926208601,0.3452474419309361 l -7.76429925705771 -11.08292789977876" fill="#ffa70f" stroke="none" /><line stroke="#e1ed5e" stroke-width="0.3" x1="143.8653032363475" x2="146.44561519142675" y1="172.8068346515853" y2="177.08958963109032" /><path d="M 144.38136562736335 173.6633856474863 a86.0,86.0 0 0,1 -40.68145358897372,12.25698825130547" fill="none" id="id30" stroke="none" /><text fill="#e1ed5e" style="font-size:6.75px; font-family:Arial;" text-anchor="middle"><textPath startOffset="21.466115282336833" xlink:href="#id30">June</textPath></text><path d="M 110.8373102113329 117.98757091392108 l 6.999928137545782 11.61835375301765 a34.56411212947845,34.56411212947845 0 0,0 -0.5122601049557762,0.30265229932225846 l -6.798900161561623 -11.737124624633658" fill="#ffa70f" stroke="none" /><path d="M 109.57404056367764 118.69057910512821 l 6.184192391440785 12.072868954835135 a34.5646010016873,34.5646010016873 0 0,0 -0.5318769402952283,0.2666941394481854 l -5.975461543462797 -12.177530935192623" fill="#ffa70f" stroke="none" /><path d="M 108.92500713936063 119.00905698771935 l 5.770919970015129 12.291278300248386 a34.57862436163827,34.57862436163827 0 0,0 -0.5409611792921217,0.2483287449426769 l -5.5584907949555875 -12.388794115525137" fill="#ffa70f" stroke="none" /><path d="M 107.93186726928326 119.44442032107085 l 5.130089003064528 12.5760559870165 a34.582157316418375,34.582157316418375 0 0,0 -0.5531151327423574,0.22009592631357464 l -4.912852794280305 -12.662498757736143" fill="#ffa70f" stroke="none" /><path d="M 107.59598834532513 119.57807347666477 l 4.953386729528016 12.766971846227184 a34.694218130825206,34.694218130825206 0 0,0 -0.5586261103557523,0.21122459520039316 l -4.732890398411989 -12.850344691534207" fill="#ffa90f" stroke="none" /><path d="M 107.2578585660854 119.70592522655815 l 4.732589645186995 12.849528111752528 a34.69334792680189,34.69334792680189 0 0,0 -0.5621651274170298,0.2015724138145381 l -4.510704957140231 -12.929088066607026" fill="#ffa90f" stroke="none" /><path d="M 106.91757812671514 119.82793768551818 l 2.262513281198159 6.485069128313111 a27.868412330851857,27.868412330851857 0 0,0 -0.4542952874207616,0.1541216270474596 l -2.150548260840171 -6.5230537422586945" fill="#ff4c07" stroke="none" /><path d="M 106.57524785965236 119.94407469862006 l 6.022884819308185 18.26864436161621 a40.2358651575089,40.2358651575089 0 0,0 -0.6596356921680696,0.21119451802362393 l -5.7075277820491745 -18.369611726299542" fill="#fff016" stroke="none" /><path d="M 105.53697534728816 120.25689768951611 l 7.995661646795331 29.251945291475355 a51.32502116249057,51.32502116249057 0 0,0 -0.8542183532948858,0.22560683097497633 l -7.490952850688948 -29.385243471753917" fill="#8dff24" stroke="none" /><path d="M 104.48393922423573 120.51570834832081 l 2.933246329491038 13.420705143450677 a34.73751289633302,34.73751289633302 0 0,0 -0.58525850816332,0.12264661074751142 l -2.70179635989834 -13.46920773492473" fill="#ffa90f" stroke="none" /><path d="M 103.7750983002368 120.6578951692458 l 3.8704826295126735 21.17985229943391 a42.53060099512309,42.53060099512309 0 0,0 -0.7213008232535687,0.12540739380828242 l -3.5053328347870547 -21.2433382717632" fill="#f2ff19" stroke="none" /><path d="M 103.41894727170886 120.7198165907248 l 5.430289743366091 32.909137981763116 a54.35415130684081,54.35415130684081 0 0,0 -0.9244454052761804,0.1443793601241478 l -4.8630084744813935 -32.99773564923437" fill="#6cff28" stroke="none" /><path d="M 102.70371172650421 120.8252237178851 l 2.330051913545684 17.947125020097662 a39.097746777066845,39.097746777066845 0 0,0 -0.6681480542271699,0.08090342448702642 l -2.0207764362671337 -17.984573973310038" fill="#ffe115" stroke="none" /><path d="M 102.34483914955558 120.86867818915974 l 1.9920903691205571 17.729272749809063 a38.84083900145576,38.84083900145576 0 0,0 -0.6650428393053945,0.06893440949011745 l -1.68661493320956 -17.760936527754936" fill="#ffde14" stroke="none" /><path d="M 101.98527174616119 120.90594882070398 l 1.5461619310371006 16.281893026123775 a37.355141614523745,37.355141614523745 0 0,0 -0.6406507863828632,0.055278045567035326 l -1.2656668269126958 -16.306095323969473" fill="#ffcb12" stroke="none" /><path d="M 101.62511606390274 120.93702456842531 l 0.6347066144298013 8.177180864328825 a29.201776598661198,29.201776598661198 0 0,0 -0.5014880044234101,0.03458554890830035 l -0.49385584922746084 -8.18689475775341" fill="#ff5e08" stroke="none" /><path d="M 101.26447882468166 120.96189622390904 l 0.9865408986672494 16.354380583408382 a37.38410898436983,37.38410898436983 0 0,0 -0.6426718759565878,0.03321879512720216 l -0.7048809542971819 -16.368939185297787" fill="#ffcc13" stroke="none" /><path d="M 100.90346689309514 120.98055641714683 l 1.2554401861654327 29.154176932771552 a50.18119536085504,50.18119536085504 0 0,0 -0.8633068863102514,0.029734034718794607 l -0.7534129481805291 -29.17146776591644" fill="#99ff23" stroke="none" /><line stroke="#e1ed5e" stroke-width="0.3" x1="102.19456741930631" x2="102.32365962044197" y1="184.97166512339345" y2="189.96999836594603" /><path d="M 102.22038585953345 185.97133177190398 a86.0,86.0 0 0,1 -42.740103519485714,-10.115201625700543" fill="none" id="id31" stroke="none" /><text fill="#e1ed5e" style="font-size:6.75px; font-family:Arial;" text-anchor="middle"><textPath startOffset="22.20632615414155" xlink:href="#id31">July</textPath></text><path d="M 100.18074693466247 120.99922214144158 l 0.1875302406474187 21.787308254755036 a42.78811530580087,42.78811530580087 0 0,0 -0.7365543506197333,0.0 l 0.1875302406474037 -21.787308254755036" fill="#efff19" stroke="none" /><path d="M 99.81925306533755 120.99922214144158 l -0.0981500770345004 11.403099447834144 a32.403521844360945,32.403521844360945 0 0,0 -0.5577113801902632,-0.009601507186275346 l 0.29442114711743156 -11.399720463368709" fill="#ff8a0c" stroke="none" /><path d="M 99.09653310690486 120.98055641714683 l -0.4330526441628299 10.056467483082548 a31.065787243475448,31.065787243475448 0 0,0 -0.534053326620127,-0.027604456811789295 l 0.6060940391964458 -10.047523219508557" fill="#ff780b" stroke="none" /><path d="M 98.73552117531835 120.96189622390904 l -0.3614878455808604 5.992564333513605 a27.0034574000156,27.0034574000156 0 0,0 -0.4637358250554951,-0.031981937586778954 l 0.4645864314152855 -5.9854540514105405" fill="#ff3f06" stroke="none" /><path d="M 98.37488393609728 120.93702456842531 l -0.5111436021392883 6.585268827066571 a27.605076328608373,27.605076328608373 0 0,0 -0.4734345285203222,-0.040849923229336865 l 0.6244224484011522 -6.575494651558571" fill="#ff4806" stroke="none" /><path d="M 98.01472825383883 120.90594882070398 l -3.8953120107538024 41.01967083093777 a62.20420913862575,62.20420913862575 0 0,0 -1.065076474294204,-0.11039953139554863 l 4.600821081653599 -40.94654193108646" fill="#32ff46" stroke="none" /><path d="M 97.65516085044442 120.86867818915974 l -1.6860413903853757 15.005487773532161 a36.09991387034098,36.09991387034098 0 0,0 -0.616917577060579,-0.07470012715695819 l 1.9440863904973442 -14.974242117649855" fill="#ffbb11" stroke="none" /><path d="M 97.2962882734958 120.8252237178851 l -5.018922725235389 38.65803722756549 a59.98247590404852,59.98247590404852 0 0,0 -1.02276236433641,-0.14174554426513164 l 5.68361368075863 -38.56591711780775" fill="#33ff2f" stroke="none" /><path d="M 96.93821686468263 120.77559828337769 l -2.4304093228782593 16.49143833012227 a37.66956591135353,37.66956591135353 0 0,0 -0.6406770465224108,-0.10006057847786021 l 2.7139222330091872 -16.447159444297306" fill="#ffcf13" stroke="none" /><path d="M 96.58105272829116 120.7198165907248 l -2.39472225043063 14.512714549660311 a35.70896251462453,35.70896251462453 0 0,0 -0.6056087489166447,-0.10529284373550746 l 2.6441799708193243 -14.469343127403798" fill="#ffb610" stroke="none" /><path d="M 96.22490169976321 120.6578951692458 l -2.565886941388737 14.040912112942983 a35.273436473371724,35.273436473371724 0 0,0 -0.5963434425426162,-0.11429064007264486 l 2.807197998503048 -13.99466427452187" fill="#ffb010" stroke="none" /><path d="M 95.86986931433489 120.58985236759428 l -4.644859891182716 23.155920891208098 a44.61718433108836,44.61718433108836 0 0,0 -0.7517114658722874,-0.15752844642722286 l 5.04276281848439 -23.072536464054334" fill="#d9ff1c" stroke="none" /><path d="M 95.16358092515715 120.4354850818985 l -4.808829829081521 20.318911308730424 a41.88020596395345,41.88020596395345 0 0,0 -0.7000908922820792,-0.17206530819615057 l 5.157874006106811 -20.23312474222024" fill="#faff18" stroke="none" /><path d="M 94.81253420990036 120.34920634021253 l -1.0077037579234593 3.9529844686258984 a25.079405970595552,25.079405970595552 0 0,0 -0.4174043845397021,-0.11024029168635113 l 1.0755985852746506 -3.9350528276359653" fill="#ff2403" stroke="none" /><path d="M 94.46302465271185 120.25689768951611 l -2.04775427499842 7.491662187412211 a28.76648568537123,28.76648568537123 0 0,0 -0.4765220844335921,-0.13466990091138084 l 2.176407527536626 -7.455303493162309" fill="#ff5808" stroke="none" /><path d="M 94.11515582081647 120.15858648285463 l -2.989499994109262 10.240559025320874 a31.66799697065293,31.66799697065293 0 0,0 -0.5219564886139744,-0.15726120834502577 l 3.1653314571634823 -10.187582447870122" fill="#ff800b" stroke="none" /><path d="M 93.42475214034765 119.94407469862007 l -3.391941005477872 10.288452424991915 a31.833167453979666,31.833167453979666 0 0,0 -0.5189265102845176,-0.1760480469370038 l 3.568537248699615 -10.228541391156789" fill="#ff820c" stroke="none" /><path d="M 93.08242187328487 119.8279376855182 l -3.614085633830071 10.35909727726306 a31.97144071525959,31.97144071525959 0 0,0 -0.5180598044709134,-0.1857578141982873 l 3.791864998930711 -10.295351922024816" fill="#ff840c" stroke="none" /><path d="M 92.7421414339146 119.70592522655815 l -0.6497546206722922 1.764158925665704 a22.880010048401594,22.880010048401594 0 0,0 -0.3684006069842161,-0.1392975867745695 l 0.6800254484167912 -1.7527130887845013" fill="#ff0400" stroke="none" /><path d="M 92.40401165467489 119.57807347666478 l -1.4501890678942264 3.7377503539434374 a25.00921763453223,25.00921763453223 0 0,0 -0.4000032908629368,-0.15916956456146095 l 1.5143134347990213 -3.71223394497591" fill="#ff2303" stroke="none" /><path d="M 92.06813273071674 119.44442032107085 l -2.4772647968024812 6.0728421593938595 a27.558677669041856,27.558677669041856 0 0,0 -0.43769550195882895,-0.18295675531694744 l 2.5814317582587725 -6.029300361056939" fill="#ff4706" stroke="none" /><path d="M 91.7346041902142 119.30500536409082 l -4.410280337634323 10.300835862497113 a32.20525734298997,32.20525734298997 0 0,0 -0.5077378511233751,-0.22257735289247485 l 4.586938863415441 -10.223393956310186" fill="#ff870c" stroke="none" /><path d="M 91.40352486487194 119.15986991738527 l -7.584452546617935 16.90426854071468 a39.5277687628191,39.5277687628191 0 0,0 -0.6183874806900452,-0.2838713623941909 l 7.8743080230753995 -16.771210107986413" fill="#ffe715" stroke="none" /><path d="M 91.07499286063937 119.00905698771935 l -4.267665880500184 9.089550591976897 a31.04155874511985,31.04155874511985 0 0,0 -0.4817167028838506,-0.23125329126007674 l 4.423495251384277 -9.014743024217257" fill="#ff780b" stroke="none" /><path d="M 90.7491055286396 118.85261126421891 l -3.2575723173712965 6.638681778784857 a28.39485450586243,28.39485450586243 0 0,0 -0.43693744168980975,-0.21908950393576768 l 3.371363666743867 -6.581624433939788" fill="#ff5307" stroke="none" /><path d="M 90.42595943632237 118.69057910512821 l -5.915150991345335 11.547642480433526 a33.9744771804619,33.9744771804619 0 0,0 -0.5182063868003772,-0.2711010896275934 l 6.113048280672208 -11.444111971861217" fill="#ff9f0e" stroke="none" /><path d="M 90.10565033884886 118.52300852407294 l -3.6723843405236565 6.874995201582313 a28.794354737006984,28.794354737006984 0 0,0 -0.43517482573753175,-0.237292012561168 l 3.790181978129829 -6.810762537261379" fill="#ff5908" stroke="none" /><line stroke="#e1ed5e" stroke-width="0.3" x1="58.666819895761336" x2="56.23545636021788" y1="174.27360380694188" y2="178.64263932499728" /><path d="M 58.180547188652646 175.14741091055294 a86.0,86.0 0 0,1 -31.652253787137756,-30.449443065178592" fill="none" id="id32" stroke="none" /><text fill="#e1ed5e" style="font-size:6.75px; font-family:Arial;" text-anchor="middle"><textPath startOffset="22.20632615414155" xlink:href="#id32">August</textPath></text><path d="M 89.7882731507175 118.34994917583269 l -5.912480568062115 10.624424206436869 a33.15877527492115,33.15877527492115 0 0,0 -0.4963572330978118,-0.28184459108098187 l 6.094486568081134 -10.521076449561255" fill="#ff940d" stroke="none" /><path d="M 89.4739219176387 118.17145234162733 l -6.905647400013812 11.921405259924104 a34.77707767941604,34.77707767941604 0 0,0 -0.5154163774083803,-0.30451708072105704 l 7.109831648450575 -11.800769606909297" fill="#ffaa0f" stroke="none" /><path d="M 89.1626897886671 117.98757091392108 l -2.115407152974042 3.511114421745107 a25.09913062800397,25.09913062800397 0 0,0 -0.3681454427162513,-0.2261449993999735 l 2.175531795622602 -3.474180955516755" fill="#ff2403" stroke="none" /><path d="M 88.8546689885994 117.79835938074946 l -4.0411475557963925 6.453446419413504 a28.614318371066457,28.614318371066457 0 0,0 -0.41520492998509445,-0.26500343105782725 l 4.1516342878284105 -6.382928559531872" fill="#ff5608" stroke="none" /><path d="M 88.54995079064634 117.60387380957326 l -3.7925273192231423 5.830819686995213 a27.955697067102967,27.955697067102967 0 0,0 -0.40113137336567467,-0.265848001241528 l 3.892333391328779 -5.764673664662366" fill="#ff4d07" stroke="none" /><path d="M 88.24862548938628 117.40417183066458 l -0.9051114442831748 1.3404997932776022 a22.617456776037514,22.617456776037514 0 0,0 -0.32078351371819686,-0.22063782579561855 l 0.928051842624262 -1.3247211781168826" fill="#ff0000" stroke="none" /><path d="M 87.95078237400918 117.19931262002967 l -4.181926586391262 5.969372032770658 a28.28847806058237,28.28847806058237 0 0,0 -0.39640600142741483,-0.2828251567863419 l 4.284059915667563 -5.896502614140097" fill="#ff5207" stroke="none" /><path d="M 87.65650970185807 116.9893568818739 l -3.9528231534195295 5.440594323186494 a27.724944421457966,27.724944421457966 0 0,0 -0.3836802639612223,-0.28383748677887466 l 4.045888387799316 -5.371746887667853" fill="#ff4a06" stroke="none" /><path d="M 87.36589467227662 116.77436683061367 l -2.3979911125138575 3.1838251727720244 a24.9858630315745,24.9858630315745 0 0,0 -0.3413202998835886,-0.2617098513064948 l 2.452440140890933 -3.1420759796381628" fill="#ff2303" stroke="none" /><path d="M 87.07902340077011 116.55440617244103 l -2.4216576633483355 3.102637348020753 a24.93583337449478,24.93583337449478 0 0,0 -0.3360905142618659,-0.26701063104489886 l 2.4747056703275594 -3.0604928029707237" fill="#ff2203" stroke="none" /><path d="M 86.51685102203217 116.09983520530335 l -7.179927528728373 8.573342190866317 a32.182734712022814,32.182734712022814 0 0,0 -0.4216467322590198,-0.3593364926616445 l 7.32643973756445 -8.448481307981721" fill="#ff870c" stroke="none" /><path d="M 85.70375840098266 115.38237550388516 l -1.3878138469147265 1.4932507662853909 a23.038584098020035,23.038584098020035 0 0,0 -0.2881624032820679,-0.27247553849353184 l 1.4133120845876115 -1.4691405910459283" fill="#ff0601" stroke="none" /><path d="M 85.44109423537348 115.13401014063109 l -2.688249567396066 2.7944405212353454 a24.877574443299213,24.877574443299213 0 0,0 -0.30605345439052745,-0.2995377208344913 l 2.735952974162388 -2.747752697478284" fill="#ff2103" stroke="none" /><path d="M 84.9287848128048 114.62390073753433 l -12.790208507479091 12.410594454563729 a38.82168029060219,38.82168029060219 0 0,0 -0.46122642366504263,-0.4835940612538548 l 13.001941482523092 -12.188593276727373" fill="#ffde14" stroke="none" /><path d="M 84.67929136418377 114.36230785411682 l -6.929118947723178 6.49566164663847 a30.497700227913406,30.497700227913406 0 0,0 -0.3557391056522316,-0.38608453985883523 l 7.039904461371139 -6.3754258519782905" fill="#ff700a" stroke="none" /><path d="M 83.72743513129214 113.27417163493432 l -1.5911000714873103 1.2979229523855595 a23.05333957927474,23.05333957927474 0 0,0 -0.24818795934241653,-0.30965263992295616 l 1.6132059428845877 -1.2703424788843438" fill="#ff0601" stroke="none" /><path d="M 83.28015986056508 112.70617746262583 l -16.2249508012865 12.33008823554978 a41.37842251992559,41.37842251992559 0 0,0 -0.42607703199353697,-0.5707998128687832 l 16.434789099975124 -12.04897554317169" fill="#fffe18" stroke="none" /><path d="M 83.06392112726016 112.41649034213515 l -6.656016725319084 4.879781678392986 a29.253170777132098,29.253170777132098 0 0,0 -0.29423146691512636,-0.4086617733337795 l 6.739027984609818 -4.764486299608069" fill="#ff5f08" stroke="none" /><path d="M 82.44556493220864 111.52570212397912 l -17.413207374636748 11.432976364553033 a41.83105229277993,41.83105229277993 0 0,0 -0.3900150761307997,-0.6053120592539142 l 17.607427314144594 -11.13154270537767" fill="#fbff18" stroke="none" /><path d="M 82.24976979558568 111.22182372390057 l -6.88793042663805 4.354599358998782 a29.148995099986184,29.148995099986184 0 0,0 -0.26447210879489785,-0.42641324913008066 l 6.961867175100904 -4.235389778503437" fill="#ff5e08" stroke="none" /><path d="M 82.05923443525364 110.91462005526583 l -14.534592886434822 8.842407445818955 a38.013011485691656,38.013011485691656 0 0,0 -0.33527317616442204,-0.5619371281286346 l 14.684646938297476 -8.59090822380421" fill="#ffd413" stroke="none" /><line stroke="#e1ed5e" stroke-width="0.3" x1="26.63291911575756" x2="22.317208475507996" y1="142.92168965132927" y2="145.44649492493687" /><path d="M 25.769776987707644 143.4266507060508 a86.0,86.0 0 0,1 -11.730757126820373,-40.83630448921669" fill="none" id="id33" stroke="none" /><text fill="#e1ed5e" style="font-size:6.75px; font-family:Arial;" text-anchor="middle"><textPath startOffset="21.46611528233685" xlink:href="#id33">September</textPath></text><path d="M 81.87401531095188 110.60418214915194 l -17.157428894686014 10.037551301712346 a40.87787218015836,40.87787218015836 0 0,0 -0.35008589110189303,-0.6104042599637374 l 17.327666781940284 -9.740727195890303" fill="#fff717" stroke="none" /><path d="M 81.51974371655577 109.97397251340807 l -18.39513493274454 9.928031699646544 a41.90327253381788,41.90327253381788 0 0,0 -0.33711679960750257,-0.6376979390743872 l 18.563304240576926 -9.60991874548603" fill="#faff18" stroke="none" /><path d="M 81.18737489456691 109.33194174019688 l -6.237417115066112 3.0940505538641507 a27.962651872468328,27.962651872468328 0 0,0 -0.21018159688025984,-0.43303634330593854 l 6.289751968561091 -2.9862252545929273" fill="#ff4d07" stroke="none" /><path d="M 81.02952815118164 109.00673069616217 l -7.514142127009769 3.5675367007215306 a29.318031619072986,29.318031619072986 0 0,0 -0.21252136174835531,-0.4577521064180414 l 7.574438105597951 -3.437664527024662" fill="#ff6008" stroke="none" /><path d="M 80.45479744820244 107.68017299344265 l -19.07998896479131 7.497370036162507 a41.50015942269,41.50015942269 0 0,0 -0.2555337148159596,-0.6671178949412859 l 19.206216959200777 -7.167828574388063" fill="#ffff18" stroke="none" /><path d="M 80.20201598880116 107.00284435728193 l -43.52321162126242 15.394813771964904 a67.16568250229463,67.16568250229463 0 0,0 -0.37615714801075295,-1.0932887473772326 l 43.7817596002164 -14.643352321498375" fill="#38ff80" stroke="none" /><path d="M 79.97269907076064 106.31721596034903 l -4.076501160354088 1.2858516623661806 a25.274491339092652,25.274491339092652 0 0,0 -0.12730307248579453,-0.41603380659005734 l 4.098031005346012 -1.2154908832240754" fill="#ff2703" stroke="none" /><path d="M 79.67330655649465 105.27499134158121 l -14.664007093081514 3.8054645072440754 a36.149741388612526,36.149741388612526 0 0,0 -0.15112087071808664,-0.6036527579985849 l 14.727339278094659 -3.5524839098480987" fill="#ffbc11" stroke="none" /><path d="M 79.58551787078972 104.9243191809786 l -34.42849577442092 8.304736855001478 a56.415956510027215,56.415956510027215 0 0,0 -0.21959087417219222,-0.9459917387066822 l 34.56634721452367 -7.710876458946221" fill="#57ff2a" stroke="none" /><path d="M 79.35854240842038 103.8639653848113 l -17.177426732624696 3.215518187149239 a38.475798876348314,38.475798876348314 0 0,0 -0.11625839631172123,-0.6520388271739262 l 17.230231571275603 -2.919360609242099" fill="#ffd914" stroke="none" /><path d="M 79.29508885075956 103.50808413554451 l -17.55220954074681 2.9739141303152 a38.802365714049685,38.802365714049685 0 0,0 -0.10590873949337759,-0.6594938219230595 l 17.600800034601477 -2.671341078698927" fill="#ffde14" stroke="none" /><path d="M 79.23777060512086 103.15116336523772 l -13.75227756516985 2.0872360297990107 a34.90976967722921,34.90976967722921 0 0,0 -0.08505673782511373,-0.5948866262437038 l 13.786168354011561 -1.8502039315749061" fill="#ffab0f" stroke="none" /><path d="M 79.18660465613746 102.79330883721812 l -43.00265461365706 5.771268607146689 a64.38819937675817,64.38819937675817 0 0,0 -0.13797008544129294,-1.0997573309450333 l 43.0956262083452 -5.0301935219142475" fill="#34ff60" stroke="none" /><path d="M 79.1416061653843 102.43462659150553 l -13.502785880091393 1.57606773674583 a34.59445534158712,34.59445534158712 0 0,0 -0.06394653034214542,-0.5920654520075742 l 13.52791471193459 -1.3434059628534736" fill="#ffa70f" stroke="none" /><path d="M 79.07016306316243 101.71520430193888 l -16.602814314898744 1.3606039370084824 a37.65847190616263,37.65847190616263 0 0,0 -0.04738411539063161,-0.6465186076501748 l 16.623774988953713 -1.074612192861547" fill="#ffcf13" stroke="none" /><path d="M 79.04373962182676 101.35467743843564 l -9.431649255530067 0.6096909574101529 a30.451334865662552,30.451334865662552 0 0,0 -0.02931107609432271,-0.523368953731354 l 9.440746682511922 -0.44725028734336136" fill="#ff700a" stroke="none" /><path d="M 79.0235259727143 100.99374915477108 l -9.971514448838567 0.4723951242916847 a30.982697909726152,30.982697909726152 0 0,0 -0.02065198520246302,-0.5329359730421414 l 9.978168566892231 -0.3006819042355466" fill="#ff770a" stroke="none" /><path d="M 79.0095281055655 100.63252640178507 l -13.35119796153365 0.4023246951569608 a34.357258407637154,34.357258407637154 0 0,0 -0.012725171533790589,-0.5912887185738233 l 13.356145195752449 -0.17244616079300867" fill="#ffa40f" stroke="none" /><line stroke="#e1ed5e" stroke-width="0.3" x1="15.007084014347285" x2="10.007500721073583" y1="101.09737516637583" y2="101.16192664675087" /><path d="M 14.007167355692545 101.11028546245083 a86.0,86.0 0 0,1 10.666146001902534,-42.60595125391555" fill="none" id="id34" stroke="none" /><text fill="#e1ed5e" style="font-size:6.75px; font-family:Arial;" text-anchor="middle"><textPath startOffset="22.20632615414155" xlink:href="#id34">October</textPath></text><path d="M 79.00175016825051 100.2711162175752 l -23.31531998412513 0.30103277255487926 a44.3172632762144,44.3172632762144 0 0,0 -0.003283070790505491,-0.7628700298239922 l 23.317047352205137 0.10034673547278833" fill="#ddff1b" stroke="none" /><path d="M 79.00019446554 99.90962569577889 l -9.88050617220294 -0.04252153045893845 a30.880597669143956,30.880597669143956 0 0,0 0.006862834739170694,-0.5315341136579924 l 9.878310330346054 0.21259190217740287" fill="#ff750a" stroke="none" /><path d="M 79.00486145842228 99.54816195383935 l -9.881551188334377 -0.21266164893989403 a30.88383927755821,30.88383927755821 0 0,0 0.01601298468746685,-0.5313930044338226 l 9.876426509191266 0.382724800798711" fill="#ff760a" stroke="none" /><path d="M 79.01574976396665 99.18683210126434 l -13.490284472757923 -0.5227666537840719 a34.50040962823877,34.50040962823877 0 0,0 0.028103691581210583,-0.59322451112922 l 13.479287172943213 0.7549022715363011" fill="#ffa60f" stroke="none" /><path d="M 79.03285615573316 98.82574320788736 l -19.75945537389035 -1.1066206658176698 a40.79041904485044,40.79041904485044 0 0,0 0.045295641181344826,-0.7007035207500532 l 19.73747914170459 1.4465832508207348" fill="#fff617" stroke="none" /><path d="M 79.05617556472873 98.46500227214037 l -20.945140210693463 -1.5350941626005603 a42.00131930459747,42.00131930459747 0 0,0 0.059052887272874395,-0.7205948002075591 l 20.91561283960109 1.895402880015898" fill="#f9ff18" stroke="none" /><path d="M 79.08570108090925 98.10471618934814 l -38.7216563128334 -3.5090121172720075 a59.88032707743535,59.88032707743535 0 0,0 0.10186178087115534,-1.0257342323416936 l 38.65551740628002 4.175021880318131" fill="#34ff2f" stroke="none" /><path d="M 79.12142395522702 97.74499172005258 l -11.774581093932516 -1.271723598524696 a32.84305876235686,32.84305876235686 0 0,0 0.0655448094767982,-0.561547900056607 l 11.75094593145213 1.4742152369061647" fill="#ff900d" stroke="none" /><path d="M 79.16333360222342 97.38593545837743 l -21.771844499001116 -2.731387335386436 a42.942508736801145,42.942508736801145 0 0,0 0.09832607764568209,-0.732643486958284 l 21.7216024222976 3.1057491644093793" fill="#edff19" stroke="none" /><path d="M 79.21141760316559 97.0276538004421 l -14.698915502518716 -2.101647182935725 a35.84840186120132,35.84840186120132 0 0,0 0.0925983109804629,-0.6101071735484919 l 14.660561298098951 2.354353468876309" fill="#ffb811" stroke="none" /><path d="M 79.26566170972629 96.67025291283419 l -15.655076239258026 -2.514063568234565 a36.85565916895622,36.85565916895622 0 0,0 0.10598307855516145,-0.6255181289906695 l 15.60948129918264 2.7831674855410626" fill="#ffc512" stroke="none" /><path d="M 79.32604984820605 96.31383870115002 l -24.263757155146433 -4.326223190696537 a45.646422019831604,45.646422019831604 0 0,0 0.1445780341311453,-0.7723416394781581 l 24.185693397105425 4.743242907637269" fill="#cdff1d" stroke="none" /><path d="M 79.3925641242962 95.95851677861259 l -35.479077569721554 -6.958075598206125 a57.154941034783484,57.154941034783484 0 0,0 0.19764914570871167,-0.9638074281410535 l 35.35404912809785 7.567758682510581" fill="#4fff2b" stroke="none" /><path d="M 79.46518482838121 95.60439243477599 l -13.72019507166922 -2.936894866077538 a35.03100510508955,35.03100510508955 0 0,0 0.13129222527289636,-0.5885573020801151 l 13.667608459394286 3.172630337707612" fill="#ffad10" stroke="none" /><path d="M 79.54389044137918 95.25157060432595 l -17.387367867742274 -4.036089485148039 a38.84966609492511,38.84966609492511 0 0,0 0.15681797169853187,-0.6501117338503759 l 17.31531709578293 4.334786450657811" fill="#ffde14" stroke="none" /><path d="M 79.62865764111835 94.90015583598534 l -15.148283334516396 -3.792282462166374 a36.615757882845195,36.615757882845195 0 0,0 0.15832595843385966,-0.6100945030688047 l 15.08076104421223 4.052473390784043" fill="#ffc212" stroke="none" /><path d="M 79.71946130924805 94.55025226153421 l -29.246698990745188 -7.859117260779898 a51.28423890365984,51.28423890365984 0 0,0 0.2364282279671232,-0.8505581296622498 l 29.107083992211706 8.36138669386109" fill="#8dff24" stroke="none" /><path d="M 79.81627453868168 94.20196356495316 l -7.941438158381353 -2.2812809199773447 a29.262607497591066,29.262607497591066 0 0,0 0.14323921361367198,-0.48293142027787883 l 7.900993047655974 2.417641727001763" fill="#ff5f08" stroke="none" /><path d="M 79.91906864156998 93.8553929516997 l -13.907571750846994 -4.255607565190038 a35.54409666338408,35.54409666338408 0 0,0 0.1840583617407572,-0.5835153052011952 l 13.832257905338032 4.494373036817647" fill="#ffb410" stroke="none" /><path d="M 80.02781315780177 93.51064311812611 l -13.799347190311488 -4.483679697288415 a35.509492289761,35.509492289761 0 0,0 0.1938864039397323,-0.5796956694524994 l 13.720123492599983 4.720548469663236" fill="#ffb310" stroke="none" /><path d="M 80.14247586403 93.16781622104843 l -23.48548886070002 -8.080422057459304 a45.836694781164816,45.836694781164816 0 0,0 0.2631177305585952,-0.7438692561038066 l 23.342918049331615 8.483488939989721" fill="#cbff1d" stroke="none" /><path d="M 80.2630227832202 92.82701384747504 l -59.210931650339425 -21.518958457574875 a84.0,84.0 0 0,0 0.5055816459934896,-1.3547074518826343 l 58.83174541584431 22.534989046486853" fill="#4dd2ff" stroke="none" /><path d="M 80.38941819471856 92.48833698450439 l -8.085207978609832 -3.0969686849962352 a29.658048457546503,29.658048457546503 0 0,0 0.18671358590519094,-0.4751657103043424 l 8.030700842822949 3.2356834001963413" fill="#ff6509" stroke="none" /><path d="M 80.52162464483688 92.15188598940014 l -19.50001853943419 -7.856834356861519 a42.02333392089458,42.02333392089458 0 0,0 0.27610993932490363,-0.6686221189191827 l 19.361886913223085 8.191331046234014" fill="#f8ff18" stroke="none" /><path d="M 80.65960295795068 91.81776055985345 l -21.674618070864152 -9.169765979672245 a44.53452095624182,44.53452095624182 0 0,0 0.30476306638656053,-0.7034351760291159 l 21.51356429463491 9.54150030028796" fill="#daff1b" stroke="none" /><path d="M 80.803312248108 91.48605970444005 l -31.306074849035248 -13.884585486720079 a55.246927403658205,55.246927403658205 0 0,0 0.39303633090478335,-0.8660034562087691 l 31.062436201167113 14.421410951770918" fill="#63ff29" stroke="none" /><path d="M 80.95270993114464 91.15688171328213 l -14.305773937102678 -6.641766395719466 a36.77238817664575,36.77238817664575 0 0,0 0.27148845141235134,-0.5718239168616234 l 14.189327291848576 6.887032728221621" fill="#ffc412" stroke="none" /><path d="M 81.10775173730289 90.83032412892265 l -12.300359349308435 -5.970189824026368 a34.67267372012612,34.67267372012612 0 0,0 0.2652294217748383,-0.5346863297793755 l 12.195769914580184 6.181035742304705" fill="#ffa80f" stroke="none" /><path d="M 81.26839172434947 90.50648371742162 l -3.85180656793075 -1.9521649092740803 a25.318259101739443,25.318259101739443 0 0,0 0.20036456340558,-0.38704056173994744 l 3.817632571365056 2.018178193274363" fill="#ff2703" stroke="none" /><path d="M 81.43458229118936 90.18545643968196 l -35.51906720382244 -18.777031455012274 a61.17687201976001,61.17687201976001 0 0,0 0.5001701638543278,-0.9267393509391056 l 35.190588940749635 19.385651789283855" fill="#30ff39" stroke="none" /><path d="M 81.6062741919709 89.86733742301443 l -20.50768359625245 -11.297191242554113 a44.413492188369574,44.413492188369574 0 0,0 0.3746433697470472,-0.666448750949423 l 20.310182585212967 11.64852350343832" fill="#dcff1b" stroke="none" /><line stroke="#e1ed5e" stroke-width="0.3" x1="26.266209847984243" x2="21.928928074336255" y1="57.711370442889674" y2="55.22380399835377" /><path d="M 25.398753493254645 57.213857153982495 a86.0,86.0 0 0,1 29.58750427330803,-30.492523968695096" fill="none" id="id35" stroke="none" /><text fill="#e1ed5e" style="font-size:6.75px; font-family:Arial;" text-anchor="middle"><textPath startOffset="21.46611528233685" xlink:href="#id35">November</textPath></text><path d="M 81.78341655067845 89.55222093294921 l -6.548783403321291 -3.755931640321832 a28.549409682245827,28.549409682245827 0 0,0 0.24816278747986711,-0.4241906469525635 l 6.483160941371099 3.8681016996282875" fill="#ff5507" stroke="none" /><path d="M 81.96595687620814 89.24020034530311 l -12.643325814146088 -7.543491595059772 a35.7227019628664,35.7227019628664 0 0,0 0.3196062543501212,-0.5253486473453354 l 12.511603761509749 7.760008015612181" fill="#ffb610" stroke="none" /><path d="M 82.15384107792192 88.93136811851018 l -6.422945253476803 -3.9836704870842117 a28.558032566668786,28.558032566668786 0 0,0 0.2626963713042614,-0.41552257273331844 l 6.353421285926578 4.093640707531746" fill="#ff5507" stroke="none" /><path d="M 82.34701348167596 88.62581576622439 l -10.602994078267914 -6.831728328272732 a33.61332610278148,33.61332610278148 0 0,0 0.31757128550491864,-0.483682855137549 l 10.483826157405076 7.013229247387948" fill="#ff9a0e" stroke="none" /><line stroke="#e1ed5e" stroke-width="0.3" x1="56.762969772571076" x2="54.21961505331055" y1="26.818313649435495" y2="22.513508569990535" /><path d="M 56.25429882871897 25.957352633546506 a86.0,86.0 0 0,1 42.265352541879196,-11.944610805530505" fill="none" id="id36" stroke="none" /><text fill="#e1ed5e" style="font-size:6.75px; font-family:Arial;" text-anchor="middle"><textPath startOffset="22.20632615414155" xlink:href="#id36">December</textPath></text></svg>