<?xml version="1.0" encoding="utf-8" ?>
<svg baseProfile="full" height="200mm" version="1.1" viewBox="0,0,200,200" width="200mm" xmlns="http://www.w3.org/2000/svg" xmlns:ev="http://www.w3.org/2001/xml-events" xmlns:xlink="http://www.w3.org/1999/xlink"><defs /><rect fill="#1a1a1a" height="200" width="200" x="0" y="0" /><text alignment-baseline="middle" fill="#e1ed5e" style="dominant-baseline: central; font-size:9.0px; font-family:Arial;" text-anchor="middle" x="100.0" y="100.0">2022</text><line stroke="#e1ed5e" stroke-width="0.3" x1="100.0" x2="100.0" y1="15.0" y2="10.0" /><path d="M 100.0 14.0 a86.0,86.0 0 0,1 42.46469731375804,11.215312516191453" fill="none" id="id13" stroke="none" /><text fill="#e1ed5e" style="font-size:6.75px; font-family:Arial;" text-anchor="middle"><textPath startOffset="22.20632615414155" xlink:href="#id13">January</textPath></text><path d="M 100.0 79.0 l 0.0 -13.194716423692547 a34.19471642369255,34.19471642369255 0 0,0 0.5886058324487895,0.005066316229380037 l -0.22712535317626112 13.192761484071726" fill="#ff0000" stroke="none" /><path d="M 100.36148047927253 79.00311137660856 l 1.084441437817585 -62.990665870174325 a84.0,84.0 0 0,0 1.4454934592205289,0.03733283143056143 l -2.1685615322329816 62.9626662466014" fill="#4dd2ff" stroke="none" /><path d="M 103.59715602781102 79.31037775812273 l 10.37484940127806 -59.67261727577363 a81.56780293720549,81.56780293720549 0 0,0 1.3812337469232097,0.2524116386262912 l -11.400478269304172 59.4851901557966" fill="#49eeff" stroke="none" /><path d="M 105.36241919743992 79.69619591428918 l 10.687128785484056 -40.464827740961 a62.85232377996673,62.85232377996673 0 0,0 1.0436541890128168,0.28527011412259207 l -11.382080863720583 40.27487108601211" fill="#47ff2c" stroke="none" /><path d="M 109.41281617654863 81.2277094730956 l 23.792081268153538 -47.449334336120415 a74.08015128097657,74.08015128097657 0 0,0 1.1349767501186965,0.581379174146937 l -24.605318505860993 47.032762636660976" fill="#3effb3" stroke="none" /><line stroke="#e1ed5e" stroke-width="0.3" x1="143.23703022742887" x2="145.7803849466894" y1="26.81831364943548" y2="22.513508569990506" /><path d="M 143.74570117128098 25.957352633546492 a86.0,86.0 0 0,1 28.547481713284135,27.462654790039103" fill="none" id="id14" stroke="none" /><text fill="#e1ed5e" style="font-size:6.75px; font-family:Arial;" text-anchor="middle"><textPath startOffset="19.985693538727396" xlink:href="#id14">February</textPath></text><path d="M 111.60114157652 82.49532879139004 l 33.38464030720097 -50.37324543801998 a81.43176370419937,81.43176370419937 0 0,0 1.1617416253320898,0.7844131313270978 l -34.246786626939596 49.79112039439421" fill="#49f0ff" stroke="none" /><path d="M 114.68862486808459 84.99185889309783 l 41.33876305948994 -42.23798992441172 a80.10110933090306,80.10110933090306 0 0,0 0.977096979879076,0.9729010149270776 l -42.059695839536346 41.520153058834524" fill="#47ffff" stroke="none" /><path d="M 117.45458315368197 88.32363383020206 l 33.73311861627825 -22.56600696475556 a61.585070677692485,61.585070677692485 0 0,0 0.5818421540082946,0.8861855184503284 l -34.116557405644464 21.98200338232756" fill="#57ff2a" stroke="none" /><line stroke="#e1ed5e" stroke-width="0.3" x1="172.23445277983987" x2="176.4835382374775" y1="55.19839476539836" y2="52.563006222186495" /><path d="M 173.08426987136738 54.67131705675599 a86.0,86.0 0 0,1 12.851231095245387,41.99856678651699" fill="none" id="id15" stroke="none" /><text fill="#e1ed5e" style="font-size:6.75px; font-family:Arial;" text-anchor="middle"><textPath startOffset="22.20632615414155" xlink:href="#id15">March</textPath></text><path d="M 117.84615892207809 88.93136811851018 l 23.75649165347844 -14.734367325549904 a48.95482921010292,48.95482921010292 0 0,0 0.437992333627354,0.719944234153481 l -24.00659978539202 14.323255318189343" fill="#fff717" stroke="none" /><path d="M 118.21658344932153 89.55222093294921 l 12.14053270876013 -6.96297436071382 a34.99555452279161,34.99555452279161 0 0,0 0.2951997653545986,0.5251274432908399 l -12.258590115407161 6.752963407488187" fill="#ff0f01" stroke="none" /><path d="M 118.56541770881063 90.18545643968196 l 38.68469767052997 -20.450531001248 a64.757628501706,64.757628501706 0 0,0 0.5124812851383392,0.9899507233704086 l -39.030988388828426 19.781607555617246" fill="#30ff2f" stroke="none" /><path d="M 119.85752413597 93.16781622104841 l 13.184369209335973 -4.5362167423765705 a34.94291410652393,34.94291410652393 0 0,0 0.19079281404545834,0.5704462294281762 l -13.2604993171532 4.30859741002608" fill="#ff0e01" stroke="none" /><path d="M 120.08093135843002 93.85539295169968 l 13.350448041142993 -4.085132092099735 a34.96147438880156,34.96147438880156 0 0,0 0.17113492359281204,0.5769818866272594 l -13.418788861847508 3.854720818725945" fill="#ff0e01" stroke="none" /><path d="M 120.45610955862082 95.25157060432595 l 37.817522639869374 -8.778494056268235 a59.8230212182536,59.8230212182536 0 0,0 0.2242098836367982,1.0050889452035994 l -37.963026910508205 8.126226941514672" fill="#6eff28" stroke="none" /><line stroke="#e1ed5e" stroke-width="0.3" x1="184.98032266829074" x2="189.97916517819016" y1="98.17113171792111" y2="98.06355123074" /><path d="M 185.9800911702706 98.14961562048488 a86.0,86.0 0 0,1 -9.607161424134198,41.387399972396054" fill="none" id="id16" stroke="none" /><text fill="#e1ed5e" style="font-size:6.75px; font-family:Arial;" text-anchor="middle"><textPath startOffset="21.466115282336823" xlink:href="#id16">April</textPath></text><path d="M 119.54520255179757 107.68017299344265 l 18.70408867297466 7.34966221569932 a41.096279948572004,41.096279948572004 0 0,0 -0.2643809516570676,0.6561718402888047 l -18.5748051070602 -7.670533423830938" fill="#ff790b" stroke="none" /><path d="M 118.81262510543309 109.33194174019688 l 30.986869538535743 15.370936252866974 a55.58976387730819,55.58976387730819 0 0,0 -0.4325977694808054,0.8535564397466536 l -30.717693099268665 -15.902046904316322" fill="#a7ff21" stroke="none" /><line stroke="#e1ed5e" stroke-width="0.3" x1="174.80103733775053" x2="179.2010983576182" y1="140.37084112569926" y2="142.7455964860345" /><path d="M 175.68104954172406 140.8457921977663 a86.0,86.0 0 0,1 -30.038265399797805,32.042727171017184" fill="none" id="id17" stroke="none" /><text fill="#e1ed5e" style="font-size:6.75px; font-family:Arial;" text-anchor="middle"><textPath startOffset="22.206326154141568" xlink:href="#id17">May</textPath></text><path d="M 112.04921762599082 117.19931262002967 l 20.49172894624842 29.25033501853245 a56.71404561097638,56.71404561097638 0 0,0 -0.8043756204958618,0.5532568864655556 l -19.985196441129673 -29.5987326943631" fill="#97ff23" stroke="none" /><line stroke="#e1ed5e" stroke-width="0.3" x1="143.8653032363475" x2="146.44561519142675" y1="172.8068346515853" y2="177.08958963109032" /><path d="M 144.38136562736335 173.6633856474863 a86.0,86.0 0 0,1 -40.68145358897372,12.25698825130547" fill="none" id="id18" stroke="none" /><text fill="#e1ed5e" style="font-size:6.75px; font-family:Arial;" text-anchor="middle"><textPath startOffset="21.466115282336833" xlink:href="#id18">June</textPath></text><line stroke="#e1ed5e" stroke-width="0.3" x1="102.19456741930631" x2="102.32365962044197" y1="184.97166512339345" y2="189.96999836594603" /><path d="M 102.22038585953345 185.97133177190398 a86.0,86.0 0 0,1 -42.740103519485714,-10.115201625700543" fill="none" id="id19" stroke="none" /><text fill="#e1ed5e" style="font-size:6.75px; font-family:Arial;" text-anchor="middle"><textPath startOffset="22.20632615414155" xlink:href="#id19">July</textPath></text><line stroke="#e1ed5e" stroke-width="0.3" x1="58.666819895761336" x2="56.23545636021788" y1="174.27360380694188" y2="178.64263932499728" /><path d="M 58.180547188652646 175.14741091055294 a86.0,86.0 0 0,1 -31.652253787137756,-30.449443065178592" fill="none" id="id20" stroke="none" /><text fill="#e1ed5e" style="font-size:6.75px; font-family:Arial;" text-anchor="middle"><textPath startOffset="22.20632615414155" xlink:href="#id20">August</textPath></text><line stroke="#e1ed5e" stroke-width="0.3" x1="26.63291911575756" x2="22.317208475507996" y1="142.92168965132927" y2="145.44649492493687" /><path d="M 25.769776987707644 143.4266507060508 a86.0,86.0 0 0,1 -11.730757126820373,-40.83630448921669" fill="none" id="id21" stroke="none" /><text fill="#e1ed5e" style="font-size:6.75px; font-family:Arial;" text-anchor="middle"><textPath startOffset="21.46611528233685" xlink:href="#id21">September</textPath></text><path d="M 79.50377843672027 104.57218783832718 l -24.471532399710103 5.458978986821609 a46.073020351936485,46.073020351936485 0 0,0 -0.1660075892284609,-0.7755321901032086 l 24.561874027663006 -5.036932977302237" fill="#ffca12" stroke="none" /><line stroke="#e1ed5e" stroke-width="0.3" x1="15.007084014347285" x2="10.007500721073583" y1="101.09737516637583" y2="101.16192664675087" /><path d="M 14.007167355692545 101.11028546245083 a86.0,86.0 0 0,1 10.666146001902534,-42.60595125391555" fill="none" id="id22" stroke="none" /><text fill="#e1ed5e" style="font-size:6.75px; font-family:Arial;" text-anchor="middle"><textPath startOffset="22.20632615414155" xlink:href="#id22">October</textPath></text><path d="M 79.62865764111835 94.90015583598534 l -20.831862316373716 -5.215132591073276 a42.47473155852771,42.47473155852771 0 0,0 0.1836600680161111,-0.7077171617229202 l 20.739005916487297 5.5729461783450605" fill="#ff900d" stroke="none" /><line stroke="#e1ed5e" stroke-width="0.3" x1="26.266209847984243" x2="21.928928074336255" y1="57.711370442889674" y2="55.22380399835377" /><path d="M 25.398753493254645 57.213857153982495 a86.0,86.0 0 0,1 29.58750427330803,-30.492523968695096" fill="none" id="id23" stroke="none" /><text fill="#e1ed5e" style="font-size:6.75px; font-family:Arial;" text-anchor="middle"><textPath startOffset="21.46611528233685" xlink:href="#id23">November</textPath></text><line stroke="#e1ed5e" stroke-width="0.3" x1="56.762969772571076" x2="54.21961505331055" y1="26.818313649435495" y2="22.513508569990535" /><path d="M 56.25429882871897 25.957352633546506 a86.0,86.0 0 0,1 42.265352541879196,-11.944610805530505" fill="none" id="id24" stroke="none" /><text fill="#e1ed5e" style="font-size:6.75px; font-family:Arial;" text-anchor="middle"><textPath startOffset="22.20632615414155" xlink:href="#id24">December</textPath></text></svg>